<?xml version="1.0" encoding="utf-8"?>
<!-- Generator: Adobe Illustrator 21.0.0, SVG Export Plug-In . SVG Version: 6.00 Build 0)  -->
<svg version="1.1" id="Livello_1" xmlns="http://www.w3.org/2000/svg" xmlns:xlink="http://www.w3.org/1999/xlink" x="0px" y="0px"
	 viewBox="0 0 772 250" style="enable-background:new 0 0 772 250;" xml:space="preserve">
<style type="text/css">
	.st0{fill:#D9D9D9;}
	.st1{fill:#FD0000;}
	.st2{fill:#FFFFFF;}
	.st3{fill:#CE0000;}
</style>
<rect y="0" class="st0" width="772" height="250"/>
<g>
	<circle class="st1" cx="642.1" cy="125" r="107.8"/>
	<path class="st2" d="M613.1,63.2c0.7,0.4,1.3,0.7,1.9,1c2.8,1.4,5.5,2.9,8.3,4.3c2.6,1.3,4.8,0.7,6.2-1.9c4-7.5,8-14.9,12-22.4
		c0.2-0.3,0.3-0.6,0.6-1c0.3,0.4,0.5,0.7,0.6,1.1c4,7.4,7.9,14.8,11.9,22.2c1.4,2.7,3.6,3.4,6.3,2c3-1.6,6-3.1,9-4.7
		c0.3-0.2,0.7-0.3,1.2-0.6c-0.4,2.4-0.8,4.7-1.3,6.9c-2,11-4.1,21.9-6.1,32.9c-0.3,1.5,0.3,2.8,1.5,3.4c1.3,0.7,2.7,0.4,3.8-0.8
		c5.4-5.9,10.7-11.7,16-17.6c0.3-0.3,0.5-0.6,0.9-1.2c0.5,1.7,0.8,3,1.2,4.3c0.3,1.1,0.6,2.1,0.9,3.2c0.8,2.7,2.8,3.9,5.6,3.4
		c6.2-1.2,12.3-2.4,18.5-3.6c0.2,0,0.4-0.1,0.7-0.1c-0.7,2.4-1.3,4.7-1.9,6.9c-1.4,5-2.8,10-4.2,15c-0.8,2.8,0.3,5,3,6.2
		c2.1,0.9,4.2,1.8,6.5,2.8c-1.9,1.6-3.7,3.2-5.5,4.7c-9.5,8-19.1,16-28.6,24.1c-2.6,2.2-3.4,4.8-2.4,8c0.8,2.9,1.6,5.8,2.5,8.9
		c-1.5-0.2-2.9-0.3-4.3-0.5c-9.9-1.3-19.8-2.5-29.8-3.8c-2.6-0.3-4.3,1.2-4.2,3.8c0.4,9.5,0.9,19.1,1.3,28.6c0.1,2.7,0,5.4,0,8.1
		c-2,0-4.2,0-6.5,0c0-0.9,0-1.7,0-2.6c0.4-10,0.9-19.9,1.3-29.9c0.1-1.5,0.2-2.9,0.2-4.4c0-2.5-1.6-4-4-3.7c-5,0.6-10,1.3-15.1,1.9
		c-6.2,0.8-12.4,1.6-18.6,2.4c-0.1,0-0.2,0-0.5-0.1c0.2-0.9,0.5-1.8,0.7-2.6c0.6-2.1,1.2-4.2,1.8-6.3c0.9-3.1,0.1-5.7-2.4-7.8
		c-11-9.2-21.9-18.5-32.9-27.7c-0.4-0.3-0.8-0.6-1.2-1c0.4-0.2,0.7-0.4,0.9-0.5c1.8-0.8,3.7-1.5,5.5-2.3c2.7-1.1,3.8-3.4,3-6.2
		c-1.9-6.9-3.9-13.8-5.8-20.7c-0.1-0.4-0.2-0.8-0.3-1.3c3.3,0.7,6.5,1.3,9.7,1.9c3.2,0.6,6.5,1.3,9.7,1.9c2.6,0.5,4.7-0.8,5.4-3.4
		c0.7-2.4,1.3-4.7,2-7.1c0.1-0.1,0.3-0.2,0.4-0.3c0.2,0.3,0.4,0.7,0.6,1c5.3,5.8,10.6,11.6,15.9,17.4c1,1,2,1.6,3.5,1.2
		c1.6-0.5,2.4-1.9,2-3.7c-1-5.5-2-11-3.1-16.5c-1.4-7.5-2.8-15.1-4.2-22.6C613.1,63.7,613.1,63.5,613.1,63.2z"/>
	<path class="st3" d="M580.8,95.8C580.8,95.8,580.9,95.8,580.8,95.8c3.3,0.7,6.5,1.3,9.7,1.9c2.6,0.5,4.7-0.8,5.4-3.4
		c0.7-2.4,1.3-4.7,2-7.1c0.1-0.1,0.3-0.2,0.4-0.3c0.2,0.3,0.4,0.7,0.6,1c5.3,5.8,10.6,11.6,15.9,17.4c1,1,2,1.6,3.5,1.2
		c1.6-0.5,2.4-1.9,2-3.7c-1-5.5-2-11-3.1-16.5c-1.4-7.5-2.8-15.1-4.2-22.6c0-0.1,0-0.1,0-0.2L580.8,95.8z"/>
	<path class="st3" d="M682,170.3l0.3-0.3l-0.6-0.6C681.9,169.6,681.9,169.9,682,170.3z"/>
	<path class="st3" d="M677.8,170c-9.9-1.3-19.8-2.5-29.8-3.8c-2.6-0.3-4.3,1.2-4.2,3.8c0.4,9.5,0.9,19.1,1.3,28.6
		c0.1,2.7,0,5.4,0,8.1c-2,0-4.2,0-6.5,0c0-0.9,0-1.7,0-2.6c0.4-10,0.9-19.9,1.3-29.9c0.1-1.5,0.2-2.9,0.2-4.4c0-2.5-1.6-4-4-3.7
		c-5,0.6-10,1.3-15.1,1.9c-6.2,0.8-12.4,1.6-18.6,2.4c-0.1,0-0.2,0-0.5-0.1c0.2-0.9,0.5-1.8,0.7-2.6c0.6-2.1,1.2-4.2,1.8-6.3
		c0.9-3.1,0.1-5.7-2.4-7.8c-11-9.2-21.9-18.5-32.9-27.7c-0.4-0.3-0.8-0.6-1.2-1c0.4-0.2,0.7-0.4,0.9-0.5c1.8-0.8,3.7-1.5,5.5-2.3
		c2.7-1.1,3.8-3.4,3-6.2c-1.9-6.9-3.9-13.8-5.8-20.7c-0.1-0.4-0.2-0.8-0.3-1.3l-0.1-0.1l-36.6,36.6c2.5,50,39.1,91,87.1,100.3
		l60.3-60.3C680.4,170.3,679.1,170.2,677.8,170z"/>
	<path d="M636.5,81.6l-5.3,5.5c-0.3,0.4-0.9,0.4-1.2,0l-5.3-5.5c-1.5-1.6-1.5-4.2,0.3-5.7c1.5-1.3,3.7-1.1,5.1,0.4l0.5,0.6l0.5-0.6
		c1.4-1.4,3.6-1.7,5.1-0.4C638,77.3,638.1,80,636.5,81.6z"/>
	<path d="M688.3,138.2h-8l0.2,0.9h7.4c0.4,0,0.7,0.4,0.6,0.8l-0.2,0.7c0.5,0.2,0.9,0.8,0.9,1.4c0,0.8-0.7,1.5-1.5,1.5
		c-0.8,0-1.5-0.7-1.5-1.5c0-0.4,0.2-0.8,0.5-1.1h-5.7c0.3,0.3,0.5,0.7,0.5,1.1c0,0.8-0.7,1.5-1.5,1.5c-0.8,0-1.5-0.7-1.5-1.5
		c0-0.6,0.3-1.1,0.8-1.3l-1.9-9.4h-1.9c-0.4,0-0.7-0.3-0.7-0.7v-0.4c0-0.4,0.3-0.7,0.7-0.7h2.8c0.3,0,0.6,0.2,0.6,0.5l0.3,1.2h10.8
		c0.4,0,0.7,0.4,0.6,0.8l-1.3,5.7C688.9,138,688.6,138.2,688.3,138.2z"/>
	<path d="M602.8,102.2c0,7-5.7,12.7-12.7,12.7c-0.3,0-0.6-0.2-0.6-0.5l-0.7-2.9c-0.1-0.3,0.1-0.6,0.4-0.8l3.1-1.3
		c0.3-0.1,0.6,0,0.8,0.2l1.4,1.7c2.1-1,3.9-2.8,4.9-4.9l-1.7-1.4c-0.2-0.2-0.3-0.5-0.2-0.8l1.3-3.1c0.1-0.3,0.4-0.5,0.8-0.4l2.9,0.7
		C602.6,101.6,602.8,101.9,602.8,102.2z"/>
	<path d="M643.4,142.6c-1.3,0-1.7-1.8-1-1.8h16c0.7,0,0.3,1.8-1,1.8H643.4z M644.7,137.4V131c0-0.4,0.3-0.7,0.7-0.7h10.8
		c1.9,0,3.5,1.6,3.5,3.5s-1.6,3.5-3.5,3.5h-0.9c0,1.5-1.2,2.6-2.6,2.6h-5.3C645.9,140,644.7,138.8,644.7,137.4z M655.2,132.1v3.5
		h0.9c1,0,1.8-0.8,1.8-1.8s-0.8-1.8-1.8-1.8H655.2z"/>
	<path d="M666.4,156.7c0,3.8-3,6.8-6.8,6.8s-6.8-3-6.8-6.8c0-3.8,3-6.8,6.8-6.8S666.4,152.9,666.4,156.7z M662.1,158.6
		c-0.6,0.7-1.5,1.2-2.5,1.2s-1.9-0.4-2.5-1.2c-0.4-0.4-1,0.1-0.7,0.6c0.8,0.9,1.9,1.5,3.1,1.5s2.4-0.5,3.1-1.5
		C663.1,158.7,662.4,158.1,662.1,158.6z M656.5,155.4c0,0.5,0.4,0.9,0.9,0.9c0.5,0,0.9-0.4,0.9-0.9s-0.4-0.9-0.9-0.9
		C656.9,154.5,656.5,154.9,656.5,155.4z M660.9,155.4c0,0.5,0.4,0.9,0.9,0.9c0.5,0,0.9-0.4,0.9-0.9s-0.4-0.9-0.9-0.9
		C661.3,154.5,660.9,154.9,660.9,155.4z"/>
	<path d="M638.5,100.7v6.6c0,0.4-0.3,0.7-0.7,0.7h-2.2c-0.4,0-0.7-0.3-0.7-0.7v-6.6c0-0.4,0.3-0.7,0.7-0.7h2.2
		C638.3,100,638.5,100.3,638.5,100.7z M637.4,106.2c0-0.4-0.3-0.7-0.7-0.7c-0.4,0-0.7,0.3-0.7,0.7c0,0.4,0.3,0.7,0.7,0.7
		C637.2,106.8,637.4,106.5,637.4,106.2z M644.7,98.7h2.8c0.9,0,1.6,0.8,1.6,1.6c0,0.5-0.2,1-0.5,1.3l0,0c0.3,0.6,0.2,1.5-0.3,2.2
		c0.2,0.7,0,1.6-0.4,2c0.1,0.5,0.1,0.9-0.2,1.2c-0.6,0.8-1.9,0.8-3.1,0.8h-0.1c-1.3,0-2.4-0.5-3.3-0.9c-0.4-0.2-1-0.4-1.4-0.4
		c-0.2,0-0.3-0.1-0.3-0.3v-5.9c0-0.1,0-0.2,0.1-0.2c1.1-1.1,1.6-2.2,2.4-3.1c0.4-0.4,0.6-1,0.7-1.6c0.1-0.5,0.4-1.6,0.9-1.6
		c0.7,0,2,0.2,2,2.2C645.6,97.3,644.9,97.9,644.7,98.7z"/>
	<path d="M676.6,108.7l-2,11.8c-0.1,0.4-0.5,0.7-0.9,0.5l-3.4-1.4l-1.7,2.1c-0.4,0.5-1.2,0.2-1.2-0.4v-2.2l6.6-8
		c0.1-0.2-0.1-0.4-0.2-0.2l-7.9,6.9l-2.9-1.2c-0.5-0.2-0.6-0.9-0.1-1.2l12.7-7.3C676.1,107.7,676.7,108.1,676.6,108.7z"/>
	<path d="M604.7,134.7c-1.2,0-1.3,0.9-2,0.9c-0.8,0-0.9-0.9-2-0.9c-1.2,0-1.3,0.9-2,0.9c-0.8,0-0.9-0.9-2-0.9c-1.2,0-1.3,0.9-2,0.9
		v-2.2c0-0.7,0.6-1.3,1.3-1.3h0.4v-3.9h1.8v3.9h1.8v-3.9h1.8v3.9h1.8v-3.9h1.8v3.9h0.4c0.7,0,1.3,0.6,1.3,1.3v2.2
		C606,135.5,605.9,134.7,604.7,134.7z M594.5,139v-2.6c1.2,0,1.3-0.9,2-0.9c0.8,0,0.9,0.9,2,0.9c1.2,0,1.3-0.9,2-0.9
		c0.8,0,0.9,0.9,2,0.9c1.2,0,1.3-0.9,2-0.9c0.8,0,0.9,0.9,2,0.9v2.6H594.5z M596.2,126.8c0-0.9,0.9-0.6,0.9-1.8
		c0.3,0,0.9,0.8,0.9,1.5s-0.4,1.1-0.9,1.1C596.6,127.6,596.2,127.2,596.2,126.8z M599.7,126.8c0-0.9,0.9-0.6,0.9-1.8
		c0.3,0,0.9,0.8,0.9,1.5s-0.4,1.1-0.9,1.1S599.7,127.2,599.7,126.8z M603.2,126.8c0-0.9,0.9-0.6,0.9-1.8c0.3,0,0.9,0.8,0.9,1.5
		s-0.4,1.1-0.9,1.1S603.2,127.2,603.2,126.8z"/>
	<path d="M634.1,125.1c0,1.5-3.1,2.6-7,2.6c-3.9,0-7-1.2-7-2.6c0-1,1.6-1.9,4-2.4c0.1,0.1,0.3,0.3,0.4,0.4v0.6
		c-1.8,0.3-3.1,0.8-3.1,1.4c0,0.8,2.6,1.5,5.7,1.5c3.2,0,5.7-0.7,5.7-1.5c0-0.6-1.2-1.1-3.1-1.4v-0.6c0.2-0.1,0.3-0.2,0.4-0.4
		C632.5,123.2,634.1,124.1,634.1,125.1z M624.5,121.6V119c0-0.7,0.6-1.3,1.3-1.3h0.3c0.3,0.1,0.6,0.2,1,0.2c0.4,0,0.7-0.1,1-0.2h0.3
		c0.7,0,1.3,0.6,1.3,1.3v2.6c0,0.5-0.4,0.9-0.9,0.9v2.6c0,0.5-0.4,0.9-0.9,0.9h-1.8c-0.5,0-0.9-0.4-0.9-0.9v-2.6
		C624.9,122.5,624.5,122.1,624.5,121.6z M625.3,115.5c0-1,0.8-1.8,1.8-1.8c1,0,1.8,0.8,1.8,1.8s-0.8,1.8-1.8,1.8
		C626.1,117.2,625.3,116.4,625.3,115.5z"/>
	<path d="M705.1,111v0.9c0,0.2-0.2,0.4-0.4,0.4h-0.4c-1.1,0-2-0.3-2.6-0.9c-0.6,0.5-1.6,0.9-2.6,0.9c-1.1,0-2-0.3-2.6-0.9
		c-0.6,0.5-1.6,0.9-2.6,0.9c-1.1,0-2-0.3-2.6-0.9c-0.6,0.5-1.6,0.9-2.6,0.9H688c-0.2,0-0.4-0.2-0.4-0.4V111c0-0.2,0.2-0.4,0.4-0.4
		h0.4c0.7,0,1.3-0.2,1.5-0.5c0.2-0.2,0.5-0.4,0.9-0.4h0.4c0.3,0,0.6,0.2,0.9,0.4c0.3,0.3,0.8,0.5,1.5,0.5s1.3-0.2,1.5-0.5
		c0.2-0.2,0.5-0.4,0.9-0.4h0.4c0.3,0,0.6,0.2,0.9,0.4c0.3,0.3,0.8,0.5,1.5,0.5c0.7,0,1.3-0.2,1.5-0.5c0.2-0.2,0.5-0.4,0.9-0.4h0.4
		c0.3,0,0.6,0.2,0.9,0.4c0.3,0.3,0.8,0.5,1.5,0.5h0.4C704.9,110.6,705.1,110.7,705.1,111z M688.4,105.7c0-1.2,1-2.2,2.2-2.2
		s2.2,1,2.2,2.2c0,1.2-1,2.2-2.2,2.2S688.4,106.9,688.4,105.7z M692.3,109.1l1.9-2.7c0.2-0.3,0.4-0.5,0.7-0.7l2.2-1.6
		c0.7-0.5,1.6-0.7,2.4-0.5l2.8,0.6c0.7,0.2,1.2,0.9,1,1.6c-0.2,0.7-0.9,1.2-1.6,1l-2.8-0.6c-0.1,0-0.2,0-0.3,0.1l-0.5,0.4l3.1,2.2
		c-0.5,0-0.9,0.2-1.4,0.6c-0.1,0.1-0.4,0.3-0.9,0.3s-0.8-0.2-0.9-0.3c-0.4-0.4-0.9-0.6-1.5-0.6h-0.4c-0.5,0-1,0.2-1.5,0.6
		c-0.1,0.1-0.4,0.3-0.9,0.3s-0.8-0.2-0.9-0.3C692.6,109.3,692.4,109.2,692.3,109.1z"/>
	<path d="M659.9,81.3v6c0,0.2-0.2,0.4-0.4,0.4h-1.8c-0.2,0-0.4-0.2-0.4-0.4v-3.1h-4.4v3.1c0,0.2-0.2,0.4-0.4,0.4h-1.8
		c-0.2,0-0.4-0.2-0.4-0.4v-5.9c-1-0.4-1.8-1.3-1.8-2.5c0-0.5,0.4-0.9,0.9-0.9c0.5,0,0.9,0.4,0.9,0.9c0,0.5,0.4,0.9,0.9,0.9h4.7
		L659.9,81.3z M662.6,77.7c0,1-0.8,1.8-1.8,1.8h-0.9v1l-3.5-1.3V75c0-0.4,0.5-0.6,0.7-0.3l0.7,0.7h1.5c0.3,0,0.7,0.2,0.8,0.5
		l0.2,0.4h1.8c0.2,0,0.4,0.2,0.4,0.4V77.7z M659.1,76.4c-0.2,0-0.4,0.2-0.4,0.4s0.2,0.4,0.4,0.4s0.4-0.2,0.4-0.4
		S659.3,76.4,659.1,76.4z"/>
	<path d="M612.7,151.3c-0.8-0.3-1.4-1.1-1.4-2c0-1.2,1-2.2,2.2-2.2h0.5c0.2-1,1.1-1.8,2.1-1.8c1.1,0,1.9,0.8,2.1,1.8h0.5
		c1.1,0,2,0.8,2.2,1.8c-0.4,0.1-0.7,0.2-1,0.4c-0.7-0.8-1.8-1.3-2.9-1.3c-1.9,0-3.4,1.3-3.8,3C613,151,612.9,151.1,612.7,151.3z
		 M626.2,154c0,1.5-1.2,2.6-2.6,2.6h-8.8c-1.5,0-2.6-1.2-2.6-2.6c0-1.2,0.7-2.1,1.8-2.5c0.1-1.6,1.4-2.8,3-2.8
		c1.2,0,2.2,0.7,2.7,1.7c0.4-0.5,1-0.8,1.7-0.8c1.1,0,1.9,0.8,2.1,1.8h0C625,151.4,626.2,152.6,626.2,154z M628.8,149.8
		c-0.7,0.9-1.8,1.5-2.9,1.6c-0.5-0.4-1-0.7-1.7-0.8c-0.4-1-1.3-1.6-2.4-1.8c-0.1-0.7-0.4-1.3-0.8-1.7c0,0,0,0,0-0.1
		c0-2.4,2-4.4,4.4-4.4c0.3,0,0.5,0,0.8,0.1c0.2,0,0.2,0.3,0.1,0.4c-1.1,0.6-1.8,1.8-1.8,3c0,2.1,2,3.8,4.1,3.4
		C628.8,149.4,628.9,149.6,628.8,149.8z"/>
</g>
<g>
	<path d="M29.7,63.6V30.1h9.1v33.6H29.7z"/>
	<path d="M57.3,64.1c-4.3,0-7.5-1.1-9.7-3.4s-3.3-5.6-3.3-9.9c0-4.3,1.2-7.7,3.6-10c2.4-2.4,5.7-3.6,10.1-3.6c3,0,5.9,0.7,8.5,2
		l-2.6,6.6c-1.1-0.5-2.1-0.9-3-1.1s-1.9-0.4-2.9-0.4c-1.5,0-2.6,0.6-3.4,1.7c-0.8,1.1-1.2,2.7-1.2,4.8c0,4.2,1.5,6.2,4.6,6.2
		c2.6,0,5.2-0.8,7.6-2.3v7.1C63.4,63.3,60.6,64.1,57.3,64.1z"/>
	<path d="M95.7,50.6c0,4.3-1.1,7.6-3.4,9.9s-5.5,3.6-9.6,3.6c-3.9,0-7.1-1.2-9.4-3.6c-2.3-2.4-3.5-5.7-3.5-9.9
		c0-4.2,1.1-7.5,3.4-9.9s5.5-3.5,9.6-3.5c2.6,0,4.8,0.5,6.8,1.6c2,1.1,3.5,2.6,4.5,4.7C95.1,45.5,95.7,47.9,95.7,50.6z M78.8,50.6
		c0,2.2,0.3,3.9,0.9,5.1c0.6,1.2,1.6,1.8,3,1.8c1.4,0,2.4-0.6,2.9-1.8c0.6-1.2,0.9-2.9,0.9-5.1c0-2.2-0.3-3.9-0.9-5
		c-0.6-1.1-1.6-1.7-3-1.7c-1.4,0-2.4,0.6-3,1.7C79.1,46.6,78.8,48.3,78.8,50.6z"/>
	<path d="M117.2,63.6V49.4c0-1.7-0.2-3-0.7-3.9c-0.5-0.9-1.3-1.3-2.4-1.3c-1.5,0-2.6,0.6-3.3,1.8c-0.7,1.2-1,3.3-1,6.2v11.4h-9v-26
		h6.8l1.1,3.2h0.5c0.8-1.2,1.8-2.1,3.2-2.8c1.4-0.6,2.9-0.9,4.7-0.9c2.9,0,5.1,0.8,6.7,2.5c1.6,1.7,2.4,4,2.4,7v16.9H117.2z"/>
	<path d="M152.4,55.6c0,2.8-0.9,4.9-2.8,6.3c-1.9,1.4-4.6,2.1-8.2,2.1c-1.9,0-3.6-0.1-5-0.3c-1.4-0.2-2.9-0.6-4.4-1.1v-7.2
		c1.4,0.6,2.9,1.1,4.6,1.5c1.7,0.4,3.1,0.6,4.4,0.6c1.9,0,2.9-0.4,2.9-1.3c0-0.5-0.3-0.9-0.8-1.2s-2.1-1.1-4.7-2.1
		c-2.4-1-4.1-2.1-5-3.3c-0.9-1.2-1.4-2.8-1.4-4.7c0-2.4,0.9-4.3,2.8-5.6c1.9-1.3,4.5-2,7.9-2c1.7,0,3.3,0.2,4.8,0.6
		c1.5,0.4,3.1,0.9,4.7,1.6l-2.4,5.8c-1.2-0.5-2.5-1-3.8-1.4c-1.3-0.4-2.4-0.6-3.3-0.6c-1.5,0-2.2,0.4-2.2,1.1c0,0.4,0.3,0.8,0.8,1.1
		c0.5,0.3,2,1,4.4,1.9c1.8,0.8,3.2,1.5,4.1,2.2c0.9,0.7,1.6,1.6,2,2.5C152.1,53.1,152.4,54.2,152.4,55.6z"/>
	<path d="M185.4,44.3h-5.5v19.3h-9V44.3h-3.4v-4.4l3.6-2.2v-0.4c0-3.4,0.7-5.9,2.1-7.4c1.4-1.5,3.6-2.2,6.7-2.2
		c1.2,0,2.3,0.1,3.4,0.3s2.3,0.5,3.7,1l-1.9,5.8c-1.1-0.3-2.2-0.5-3.2-0.5c-0.7,0-1.2,0.2-1.5,0.6c-0.3,0.4-0.5,1.1-0.5,2.1v0.7h5.5
		V44.3z"/>
	<path d="M213.8,50.6c0,4.3-1.1,7.6-3.4,9.9s-5.5,3.6-9.6,3.6c-3.9,0-7.1-1.2-9.4-3.6c-2.3-2.4-3.5-5.7-3.5-9.9
		c0-4.2,1.1-7.5,3.4-9.9s5.5-3.5,9.6-3.5c2.6,0,4.8,0.5,6.8,1.6c2,1.1,3.5,2.6,4.5,4.7C213.3,45.5,213.8,47.9,213.8,50.6z
		 M196.9,50.6c0,2.2,0.3,3.9,0.9,5.1c0.6,1.2,1.6,1.8,3,1.8c1.4,0,2.4-0.6,2.9-1.8c0.6-1.2,0.9-2.9,0.9-5.1c0-2.2-0.3-3.9-0.9-5
		c-0.6-1.1-1.6-1.7-3-1.7c-1.4,0-2.4,0.6-3,1.7C197.2,46.6,196.9,48.3,196.9,50.6z"/>
	<path d="M234.6,37.2c0.8,0,1.5,0.1,2.2,0.2l0.5,0.1l-0.8,8.5c-0.7-0.2-1.8-0.3-3.1-0.3c-2,0-3.4,0.4-4.3,1.3
		c-0.9,0.9-1.3,2.2-1.3,3.9v12.8h-9v-26h6.7l1.4,4.2h0.4c0.7-1.4,1.8-2.5,3.1-3.3C231.9,37.6,233.2,37.2,234.6,37.2z"/>
	<path d="M268.6,37c-2.2,0-3.8,0.9-5,2.7c-1.2,1.8-1.8,4.2-1.8,7.3c0,6.5,2.5,9.7,7.4,9.7c1.5,0,2.9-0.2,4.3-0.6
		c1.4-0.4,2.8-0.9,4.2-1.5v7.7c-2.8,1.2-6,1.9-9.5,1.9c-5.1,0-8.9-1.5-11.6-4.4c-2.7-2.9-4.1-7.2-4.1-12.7c0-3.5,0.7-6.5,2-9.2
		c1.3-2.6,3.2-4.7,5.6-6.1c2.5-1.4,5.3-2.1,8.7-2.1c3.6,0,7.1,0.8,10.4,2.4l-2.8,7.1c-1.2-0.6-2.5-1.1-3.7-1.5
		C271.4,37.2,270.1,37,268.6,37z"/>
	<path d="M300.6,63.6l-1.7-3.4h-0.2c-1.2,1.5-2.4,2.5-3.7,3.1c-1.3,0.6-2.9,0.8-4.9,0.8c-2.4,0-4.4-0.7-5.8-2.2
		c-1.4-1.5-2.1-3.5-2.1-6.2c0-2.8,1-4.8,2.9-6.2c1.9-1.4,4.7-2.1,8.4-2.3l4.3-0.1v-0.4c0-2.1-1.1-3.2-3.2-3.2
		c-1.9,0-4.3,0.6-7.2,1.9l-2.6-5.9c3-1.6,6.9-2.3,11.5-2.3c3.3,0,5.9,0.8,7.7,2.5s2.7,4,2.7,6.9v17.1H300.6z M294,57.7
		c1.1,0,2-0.3,2.8-1s1.2-1.6,1.2-2.7v-2l-2.1,0.1c-3,0.1-4.4,1.2-4.4,3.3C291.4,56.9,292.3,57.7,294,57.7z"/>
	<path d="M329.4,63.6V49.4c0-1.7-0.2-3-0.7-3.9c-0.5-0.9-1.3-1.3-2.4-1.3c-1.5,0-2.6,0.6-3.3,1.8c-0.7,1.2-1,3.3-1,6.2v11.4h-9v-26
		h6.8l1.1,3.2h0.5c0.8-1.2,1.8-2.1,3.2-2.8c1.4-0.6,2.9-0.9,4.7-0.9c2.9,0,5.1,0.8,6.7,2.5c1.6,1.7,2.4,4,2.4,7v16.9H329.4z"/>
	<path d="M363,63.6l-1.1-3.2h-0.5c-0.8,1.2-1.8,2.1-3.1,2.7c-1.3,0.6-2.9,1-4.7,1c-2.9,0-5.1-0.8-6.7-2.5c-1.6-1.7-2.4-4-2.4-7V37.6
		h9v14.2c0,1.7,0.2,3,0.7,3.9c0.5,0.9,1.3,1.3,2.4,1.3c1.5,0,2.6-0.6,3.3-1.8c0.7-1.2,1-3.3,1-6.2V37.6h9v26H363z"/>
	<path d="M387.8,64.1c-4.3,0-7.5-1.1-9.7-3.4s-3.3-5.6-3.3-9.9c0-4.3,1.2-7.7,3.6-10c2.4-2.4,5.7-3.6,10.1-3.6c3,0,5.9,0.7,8.5,2
		l-2.6,6.6c-1.1-0.5-2.1-0.9-3-1.1s-1.9-0.4-2.9-0.4c-1.5,0-2.6,0.6-3.4,1.7c-0.8,1.1-1.2,2.7-1.2,4.8c0,4.2,1.5,6.2,4.6,6.2
		c2.6,0,5.2-0.8,7.6-2.3v7.1C393.8,63.3,391,64.1,387.8,64.1z"/>
	<path d="M410,49c1.1-1.7,2-3.1,2.8-4l5.8-7.3h10l-9,11.1l9.6,14.9h-10.3l-5.7-9.3l-2.9,2.2v7.1h-9V27.9h9v14c0,2.4-0.2,4.8-0.5,7
		H410z"/>
	<path d="M459.9,37c-2.2,0-3.8,0.9-5,2.7c-1.2,1.8-1.8,4.2-1.8,7.3c0,6.5,2.5,9.7,7.4,9.7c1.5,0,2.9-0.2,4.3-0.6
		c1.4-0.4,2.8-0.9,4.2-1.5v7.7c-2.8,1.2-6,1.9-9.5,1.9c-5.1,0-8.9-1.5-11.6-4.4c-2.7-2.9-4.1-7.2-4.1-12.7c0-3.5,0.7-6.5,2-9.2
		c1.3-2.6,3.2-4.7,5.6-6.1c2.5-1.4,5.3-2.1,8.7-2.1c3.6,0,7.1,0.8,10.4,2.4l-2.8,7.1c-1.2-0.6-2.5-1.1-3.7-1.5
		C462.7,37.2,461.3,37,459.9,37z"/>
	<path d="M499.8,40.7c0,3.7-1.1,6.6-3.3,8.7c-2.2,2-5.4,3.1-9.4,3.1h-2.5v11.1h-9.1V30.1h11.6c4.2,0,7.4,0.9,9.5,2.8
		C498.8,34.7,499.8,37.3,499.8,40.7z M484.5,45.1h1.7c1.4,0,2.4-0.4,3.2-1.1c0.8-0.8,1.2-1.8,1.2-3.2c0-2.3-1.3-3.4-3.8-3.4h-2.3
		V45.1z"/>
	<path d="M132.4,75.3v11.1c0,2-0.6,3.5-1.7,4.6s-2.7,1.7-4.8,1.7c-2,0-3.5-0.6-4.6-1.7s-1.7-2.7-1.7-4.7v-11h1.2v11.1
		c0,1.6,0.5,2.9,1.4,3.8s2.2,1.4,3.9,1.4c1.6,0,2.9-0.5,3.8-1.4s1.3-2.2,1.3-3.8V75.3H132.4z"/>
	<path d="M144.6,89.1c0,1.1-0.4,2-1.3,2.6s-2.1,0.9-3.7,0.9c-1.7,0-3.1-0.3-4.1-0.8v-1.3c1.3,0.6,2.6,1,4.1,1c1.3,0,2.2-0.2,2.9-0.6
		s1-1,1-1.7c0-0.6-0.3-1.2-0.8-1.6s-1.4-0.9-2.6-1.3c-1.3-0.5-2.2-0.9-2.7-1.2s-0.9-0.7-1.2-1.1s-0.4-0.9-0.4-1.5
		c0-1,0.4-1.7,1.2-2.3s1.9-0.8,3.4-0.8c1.4,0,2.7,0.3,3.9,0.8l-0.4,1.1c-1.2-0.5-2.4-0.8-3.5-0.8c-1,0-1.9,0.2-2.5,0.5
		s-0.9,0.8-0.9,1.4c0,0.7,0.2,1.2,0.7,1.6s1.4,0.8,2.8,1.3c1.1,0.4,2,0.8,2.5,1.1s0.9,0.7,1.2,1.1S144.6,88.5,144.6,89.1z"/>
	<path d="M153.1,92.7c-1.9,0-3.3-0.6-4.3-1.7s-1.6-2.7-1.6-4.8c0-2,0.5-3.7,1.5-4.9s2.3-1.8,4-1.8c1.5,0,2.7,0.5,3.6,1.6
		s1.3,2.5,1.3,4.3v0.9h-9.2c0,1.8,0.4,3.1,1.2,4s1.9,1.4,3.4,1.4c0.7,0,1.4-0.1,1.9-0.2s1.2-0.3,2.1-0.7v1.1c-0.7,0.3-1.4,0.5-2,0.6
		S153.8,92.7,153.1,92.7z M152.7,80.5c-1.2,0-2.2,0.4-3,1.2s-1.2,2-1.3,3.5h7.9c0-1.5-0.3-2.6-1-3.5S153.9,80.5,152.7,80.5z"/>
	<path d="M170.7,91.6c0.7,0,1.4-0.1,1.9-0.2v0.9c-0.6,0.2-1.2,0.3-1.9,0.3c-1.1,0-2-0.3-2.5-0.9s-0.8-1.5-0.8-2.8v-8.2h-1.9V80
		l1.9-0.5l0.6-2.9h0.6v3.1h3.7v1h-3.7v8.1c0,1,0.2,1.7,0.5,2.2S170,91.6,170.7,91.6z"/>
	<path d="M184.3,92.4v-8.3c0-1.3-0.3-2.2-0.8-2.8s-1.4-0.9-2.5-0.9c-1.5,0-2.6,0.4-3.3,1.2s-1.1,2-1.1,3.7v7h-1.2V74.2h1.2V80
		l-0.1,1.6h0.1c0.5-0.8,1.1-1.3,1.8-1.7s1.6-0.5,2.7-0.5c2.9,0,4.3,1.6,4.3,4.7v8.3H184.3z"/>
	<path d="M194.7,92.7c-1.9,0-3.3-0.6-4.3-1.7s-1.6-2.7-1.6-4.8c0-2,0.5-3.7,1.5-4.9s2.3-1.8,4-1.8c1.5,0,2.7,0.5,3.6,1.6
		s1.3,2.5,1.3,4.3v0.9H190c0,1.8,0.4,3.1,1.2,4s1.9,1.4,3.4,1.4c0.7,0,1.4-0.1,1.9-0.2s1.2-0.3,2.1-0.7v1.1c-0.7,0.3-1.4,0.5-2,0.6
		S195.4,92.7,194.7,92.7z M194.3,80.5c-1.2,0-2.2,0.4-3,1.2s-1.2,2-1.3,3.5h7.9c0-1.5-0.3-2.6-1-3.5S195.5,80.5,194.3,80.5z"/>
	<path d="M208.8,76.1c0-0.8,0.2-1.1,0.7-1.1c0.2,0,0.4,0.1,0.6,0.3s0.2,0.5,0.2,0.8c0,0.4-0.1,0.6-0.2,0.8s-0.3,0.3-0.6,0.3
		C209,77.3,208.8,76.9,208.8,76.1z M210.1,92.4h-1.2V79.7h1.2V92.4z"/>
	<path d="M219.4,92.7c-1.8,0-3.2-0.6-4.3-1.7s-1.5-2.8-1.5-4.8c0-2.1,0.5-3.8,1.6-4.9s2.5-1.8,4.4-1.8c1.1,0,2.2,0.2,3.2,0.6l-0.3,1
		c-1.1-0.4-2.1-0.6-2.9-0.6c-1.6,0-2.7,0.5-3.6,1.4s-1.2,2.4-1.2,4.2c0,1.7,0.4,3.1,1.2,4s1.9,1.5,3.4,1.5c1.2,0,2.2-0.2,3.2-0.6
		v1.1C221.8,92.5,220.8,92.7,219.4,92.7z"/>
	<path d="M236.3,86c0,2.1-0.5,3.7-1.5,4.9s-2.4,1.8-4.2,1.8c-1.1,0-2.1-0.3-3-0.8s-1.5-1.3-2-2.3S225,87.4,225,86
		c0-2.1,0.5-3.7,1.5-4.9s2.4-1.7,4.1-1.7c1.8,0,3.1,0.6,4.1,1.8S236.3,84,236.3,86z M226.2,86c0,1.8,0.4,3.1,1.2,4.1
		s1.9,1.5,3.3,1.5s2.5-0.5,3.3-1.5s1.2-2.3,1.2-4.1c0-1.8-0.4-3.1-1.2-4.1s-1.9-1.5-3.3-1.5s-2.5,0.5-3.3,1.4S226.2,84.3,226.2,86z"
		/>
	<path d="M248.7,92.4v-8.3c0-1.3-0.3-2.2-0.8-2.8s-1.4-0.9-2.5-0.9c-1.5,0-2.6,0.4-3.3,1.2s-1.1,2-1.1,3.7v7h-1.2V79.7h1l0.2,1.7
		h0.1c0.8-1.3,2.3-2,4.4-2c2.9,0,4.3,1.6,4.3,4.7v8.3H248.7z"/>
	<path d="M261.9,89.1c0,1.1-0.4,2-1.3,2.6s-2.1,0.9-3.7,0.9c-1.7,0-3.1-0.3-4.1-0.8v-1.3c1.3,0.6,2.6,1,4.1,1c1.3,0,2.2-0.2,2.9-0.6
		s1-1,1-1.7c0-0.6-0.3-1.2-0.8-1.6s-1.4-0.9-2.6-1.3c-1.3-0.5-2.2-0.9-2.7-1.2s-0.9-0.7-1.2-1.1s-0.4-0.9-0.4-1.5
		c0-1,0.4-1.7,1.2-2.3s1.9-0.8,3.4-0.8c1.4,0,2.7,0.3,3.9,0.8l-0.4,1.1c-1.2-0.5-2.4-0.8-3.5-0.8c-1,0-1.9,0.2-2.5,0.5
		s-0.9,0.8-0.9,1.4c0,0.7,0.2,1.2,0.7,1.6s1.4,0.8,2.8,1.3c1.1,0.4,2,0.8,2.5,1.1s0.9,0.7,1.2,1.1S261.9,88.5,261.9,89.1z"/>
	<path d="M276.8,79.4c1.8,0,3.1,0.6,4,1.7s1.4,2.8,1.4,4.9c0,2.1-0.5,3.8-1.4,4.9s-2.3,1.7-4,1.7c-0.9,0-1.7-0.2-2.4-0.6
		s-1.3-0.9-1.7-1.6h-0.1l-0.3,1.9h-0.7V74.2h1.2v4.6c0,0.7,0,1.3,0,1.9l0,1h0.1c0.5-0.8,1.1-1.3,1.8-1.7S275.8,79.4,276.8,79.4z
		 M276.7,80.5c-1.5,0-2.6,0.4-3.2,1.3s-1,2.3-1,4.3v0.2c0,1.9,0.3,3.3,1,4.1s1.7,1.3,3.2,1.3c1.4,0,2.4-0.5,3.1-1.5s1.1-2.4,1.1-4.2
		C280.9,82.3,279.5,80.5,276.7,80.5z"/>
	<path d="M286.7,79.7v8.2c0,1.3,0.3,2.2,0.8,2.8s1.4,0.9,2.5,0.9c1.5,0,2.6-0.4,3.3-1.1s1.1-2,1.1-3.7v-7h1.1v12.7h-1l-0.2-1.8h-0.1
		c-0.8,1.3-2.3,2-4.4,2c-2.9,0-4.3-1.6-4.3-4.7v-8.3H286.7z"/>
	<path d="M308.7,92.4v-8.3c0-1.3-0.3-2.2-0.8-2.8s-1.4-0.9-2.5-0.9c-1.5,0-2.6,0.4-3.3,1.2s-1.1,2-1.1,3.7v7h-1.2V79.7h1l0.2,1.7
		h0.1c0.8-1.3,2.3-2,4.4-2c2.9,0,4.3,1.6,4.3,4.7v8.3H308.7z"/>
	<path d="M318.7,79.4c0.9,0,1.7,0.2,2.4,0.5s1.3,0.9,1.8,1.7h0.1c0-1-0.1-1.9-0.1-2.9v-4.6h1.1v18.2h-0.8l-0.3-1.9h-0.1
		c-1,1.5-2.4,2.2-4.2,2.2c-1.8,0-3.1-0.5-4-1.6s-1.4-2.7-1.4-4.8c0-2.2,0.5-3.9,1.4-5.1S316.9,79.4,318.7,79.4z M318.7,80.5
		c-1.4,0-2.4,0.5-3.1,1.5s-1,2.4-1,4.3c0,3.6,1.4,5.4,4.2,5.4c1.4,0,2.5-0.4,3.2-1.3s1-2.2,1-4.1V86c0-2-0.3-3.4-1-4.2
		S320.1,80.5,318.7,80.5z"/>
	<path d="M329.4,92.4h-1.2V74.2h1.2V92.4z"/>
	<path d="M338.8,92.7c-1.9,0-3.3-0.6-4.3-1.7s-1.6-2.7-1.6-4.8c0-2,0.5-3.7,1.5-4.9s2.3-1.8,4-1.8c1.5,0,2.7,0.5,3.6,1.6
		s1.3,2.5,1.3,4.3v0.9h-9.2c0,1.8,0.4,3.1,1.2,4s1.9,1.4,3.4,1.4c0.7,0,1.4-0.1,1.9-0.2s1.2-0.3,2.1-0.7v1.1c-0.7,0.3-1.4,0.5-2,0.6
		S339.6,92.7,338.8,92.7z M338.5,80.5c-1.2,0-2.2,0.4-3,1.2s-1.2,2-1.3,3.5h7.9c0-1.5-0.3-2.6-1-3.5S339.6,80.5,338.5,80.5z"/>
	<path d="M351.5,79.4c0.9,0,1.7,0.2,2.4,0.5s1.3,0.9,1.8,1.7h0.1c0-1-0.1-1.9-0.1-2.9v-4.6h1.1v18.2h-0.8l-0.3-1.9h-0.1
		c-1,1.5-2.4,2.2-4.2,2.2c-1.8,0-3.1-0.5-4-1.6s-1.4-2.7-1.4-4.8c0-2.2,0.5-3.9,1.4-5.1S349.8,79.4,351.5,79.4z M351.5,80.5
		c-1.4,0-2.4,0.5-3.1,1.5s-1,2.4-1,4.3c0,3.6,1.4,5.4,4.2,5.4c1.4,0,2.5-0.4,3.2-1.3s1-2.2,1-4.1V86c0-2-0.3-3.4-1-4.2
		S353,80.5,351.5,80.5z"/>
	<path d="M377.6,92.4l-2.8-8.5c-0.2-0.6-0.4-1.4-0.7-2.5H374l-0.2,0.9l-0.5,1.7l-2.8,8.5h-1.1l-3.6-12.7h1.2l2,7.4
		c0.5,1.8,0.8,3.2,0.9,4h0.1c0.5-1.8,0.8-3,1-3.6l2.6-7.8h1.1l2.5,7.7c0.6,1.8,0.9,3.1,1,3.6h0.1c0.1-0.5,0.4-1.9,0.9-4.1l1.9-7.3
		h1.2l-3.5,12.7H377.6z"/>
	<path d="M384.6,76.1c0-0.8,0.2-1.1,0.7-1.1c0.2,0,0.4,0.1,0.6,0.3c0.1,0.2,0.2,0.5,0.2,0.8c0,0.4-0.1,0.6-0.2,0.8
		c-0.1,0.2-0.3,0.3-0.6,0.3C384.8,77.3,384.6,76.9,384.6,76.1z M385.9,92.4h-1.2V79.7h1.2V92.4z"/>
	<path d="M393.5,91.6c0.7,0,1.4-0.1,1.9-0.2v0.9c-0.6,0.2-1.2,0.3-1.9,0.3c-1.1,0-2-0.3-2.5-0.9s-0.8-1.5-0.8-2.8v-8.2h-1.9V80
		l1.9-0.5l0.6-2.9h0.6v3.1h3.7v1h-3.7v8.1c0,1,0.2,1.7,0.5,2.2S392.8,91.6,393.5,91.6z"/>
	<path d="M407.1,92.4v-8.3c0-1.3-0.3-2.2-0.8-2.8s-1.4-0.9-2.5-0.9c-1.5,0-2.6,0.4-3.3,1.2s-1.1,2-1.1,3.7v7h-1.2V74.2h1.2V80
		l-0.1,1.6h0.1c0.5-0.8,1.1-1.3,1.8-1.7s1.6-0.5,2.7-0.5c2.9,0,4.3,1.6,4.3,4.7v8.3H407.1z"/>
	<path d="M66.4,120.4c0.7,0,1.4-0.1,1.9-0.2v0.9c-0.6,0.2-1.2,0.3-1.9,0.3c-1.1,0-2-0.3-2.5-0.9s-0.8-1.5-0.8-2.8v-8.2h-1.9v-0.7
		l1.9-0.5l0.6-2.9h0.6v3.1H68v1h-3.7v8.1c0,1,0.2,1.7,0.5,2.2S65.7,120.4,66.4,120.4z"/>
	<path d="M80,121.2V113c0-1.3-0.3-2.2-0.8-2.8s-1.4-0.9-2.5-0.9c-1.5,0-2.6,0.4-3.3,1.2s-1.1,2-1.1,3.7v7h-1.2V103h1.2v5.8l-0.1,1.6
		h0.1c0.5-0.8,1.1-1.3,1.8-1.7s1.6-0.5,2.7-0.5c2.9,0,4.3,1.6,4.3,4.7v8.3H80z"/>
	<path d="M85.1,104.9c0-0.8,0.2-1.1,0.7-1.1c0.2,0,0.4,0.1,0.6,0.3s0.2,0.5,0.2,0.8c0,0.4-0.1,0.6-0.2,0.8s-0.3,0.3-0.6,0.3
		C85.3,106.1,85.1,105.7,85.1,104.9z M86.4,121.2h-1.2v-12.7h1.2V121.2z"/>
	<path d="M98.6,117.9c0,1.1-0.4,2-1.3,2.6s-2.1,0.9-3.7,0.9c-1.7,0-3.1-0.3-4.1-0.8v-1.3c1.3,0.6,2.6,1,4.1,1c1.3,0,2.2-0.2,2.9-0.6
		s1-1,1-1.7c0-0.6-0.3-1.2-0.8-1.6s-1.4-0.9-2.6-1.3c-1.3-0.5-2.2-0.9-2.7-1.2s-0.9-0.7-1.2-1.1s-0.4-0.9-0.4-1.5
		c0-1,0.4-1.7,1.2-2.3s1.9-0.8,3.4-0.8c1.4,0,2.7,0.3,3.9,0.8l-0.4,1.1c-1.2-0.5-2.4-0.8-3.5-0.8c-1,0-1.9,0.2-2.5,0.5
		s-0.9,0.8-0.9,1.4c0,0.7,0.2,1.2,0.7,1.6s1.4,0.8,2.8,1.3c1.1,0.4,2,0.8,2.5,1.1s0.9,0.7,1.2,1.1S98.6,117.3,98.6,117.9z"/>
	<path d="M118.3,121.2l-2.8-8.5c-0.2-0.6-0.4-1.4-0.7-2.5h-0.1l-0.2,0.9l-0.5,1.7l-2.8,8.5H110l-3.6-12.7h1.2l2,7.4
		c0.5,1.8,0.8,3.2,0.9,4h0.1c0.5-1.8,0.8-3,1-3.6l2.6-7.8h1.1l2.5,7.7c0.6,1.8,0.9,3.1,1,3.6h0.1c0.1-0.5,0.4-1.9,0.9-4.1l1.9-7.3
		h1.2l-3.5,12.7H118.3z"/>
	<path d="M136,114.8c0,2.1-0.5,3.7-1.5,4.9s-2.4,1.8-4.2,1.8c-1.1,0-2.1-0.3-3-0.8s-1.5-1.3-2-2.3s-0.7-2.2-0.7-3.5
		c0-2.1,0.5-3.7,1.5-4.9s2.4-1.7,4.1-1.7c1.8,0,3.1,0.6,4.1,1.8S136,112.8,136,114.8z M125.9,114.8c0,1.8,0.4,3.1,1.2,4.1
		s1.9,1.5,3.3,1.5s2.5-0.5,3.3-1.5s1.2-2.3,1.2-4.1c0-1.8-0.4-3.1-1.2-4.1s-1.9-1.5-3.3-1.5s-2.5,0.5-3.3,1.4
		S125.9,113.1,125.9,114.8z"/>
	<path d="M148.4,121.2V113c0-1.3-0.3-2.2-0.8-2.8s-1.4-0.9-2.5-0.9c-1.5,0-2.6,0.4-3.3,1.2s-1.1,2-1.1,3.7v7h-1.2v-12.7h1l0.2,1.7
		h0.1c0.8-1.3,2.3-2,4.4-2c2.9,0,4.3,1.6,4.3,4.7v8.3H148.4z"/>
	<path d="M158.3,108.2c0.9,0,1.7,0.2,2.4,0.5s1.3,0.9,1.8,1.7h0.1c0-1-0.1-1.9-0.1-2.9V103h1.1v18.2h-0.8l-0.3-1.9h-0.1
		c-1,1.5-2.4,2.2-4.2,2.2c-1.8,0-3.1-0.5-4-1.6s-1.4-2.7-1.4-4.8c0-2.2,0.5-3.9,1.4-5.1S156.6,108.2,158.3,108.2z M158.3,109.3
		c-1.4,0-2.4,0.5-3.1,1.5s-1,2.4-1,4.3c0,3.6,1.4,5.4,4.2,5.4c1.4,0,2.5-0.4,3.2-1.3s1-2.2,1-4.1v-0.2c0-2-0.3-3.4-1-4.2
		S159.8,109.3,158.3,109.3z"/>
	<path d="M173.1,121.5c-1.9,0-3.3-0.6-4.3-1.7s-1.6-2.7-1.6-4.8c0-2,0.5-3.7,1.5-4.9s2.3-1.8,4-1.8c1.5,0,2.7,0.5,3.6,1.6
		s1.3,2.5,1.3,4.3v0.9h-9.2c0,1.8,0.4,3.1,1.2,4s1.9,1.4,3.4,1.4c0.7,0,1.4-0.1,1.9-0.2s1.2-0.3,2.1-0.7v1.1c-0.7,0.3-1.4,0.5-2,0.6
		S173.8,121.5,173.1,121.5z M172.8,109.3c-1.2,0-2.2,0.4-3,1.2s-1.2,2-1.3,3.5h7.9c0-1.5-0.3-2.6-1-3.5S173.9,109.3,172.8,109.3z"/>
	<path d="M186.1,108.2c0.5,0,1.1,0.1,1.7,0.2l-0.2,1.1c-0.5-0.1-1.1-0.2-1.7-0.2c-1.1,0-2,0.5-2.7,1.4s-1,2.1-1,3.5v7h-1.2v-12.7h1
		l0.1,2.3h0.1c0.5-0.9,1.1-1.6,1.7-2S185.3,108.2,186.1,108.2z"/>
	<path d="M195.2,109.5h-3v11.7H191v-11.7h-2.4v-0.7l2.4-0.4v-1c0-1.6,0.3-2.7,0.9-3.4s1.5-1.1,2.8-1.1c0.7,0,1.4,0.1,2.1,0.3l-0.3,1
		c-0.6-0.2-1.2-0.3-1.9-0.3c-0.9,0-1.5,0.3-1.9,0.8s-0.6,1.4-0.6,2.6v1.2h3V109.5z"/>
	<path d="M198.7,108.5v8.2c0,1.3,0.3,2.2,0.8,2.8s1.4,0.9,2.5,0.9c1.5,0,2.6-0.4,3.3-1.1s1.1-2,1.1-3.7v-7h1.1v12.7h-1l-0.2-1.8
		h-0.1c-0.8,1.3-2.3,2-4.4,2c-2.9,0-4.3-1.6-4.3-4.7v-8.3H198.7z"/>
	<path d="M213,121.2h-1.2V103h1.2V121.2z"/>
	<path d="M226.8,120.4c0.7,0,1.4-0.1,1.9-0.2v0.9c-0.6,0.2-1.2,0.3-1.9,0.3c-1.1,0-2-0.3-2.5-0.9s-0.8-1.5-0.8-2.8v-8.2h-1.9v-0.7
		l1.9-0.5l0.6-2.9h0.6v3.1h3.7v1h-3.7v8.1c0,1,0.2,1.7,0.5,2.2S226.1,120.4,226.8,120.4z"/>
	<path d="M240.4,121.2V113c0-1.3-0.3-2.2-0.8-2.8s-1.4-0.9-2.5-0.9c-1.5,0-2.6,0.4-3.3,1.2s-1.1,2-1.1,3.7v7h-1.2V103h1.2v5.8
		l-0.1,1.6h0.1c0.5-0.8,1.1-1.3,1.8-1.7s1.6-0.5,2.7-0.5c2.9,0,4.3,1.6,4.3,4.7v8.3H240.4z"/>
	<path d="M250.8,121.5c-1.9,0-3.3-0.6-4.3-1.7s-1.6-2.7-1.6-4.8c0-2,0.5-3.7,1.5-4.9s2.3-1.8,4-1.8c1.5,0,2.7,0.5,3.6,1.6
		s1.3,2.5,1.3,4.3v0.9h-9.2c0,1.8,0.4,3.1,1.2,4s1.9,1.4,3.4,1.4c0.7,0,1.4-0.1,1.9-0.2s1.2-0.3,2.1-0.7v1.1c-0.7,0.3-1.4,0.5-2,0.6
		S251.5,121.5,250.8,121.5z M250.5,109.3c-1.2,0-2.2,0.4-3,1.2s-1.2,2-1.3,3.5h7.9c0-1.5-0.3-2.6-1-3.5S251.6,109.3,250.5,109.3z"/>
	<path d="M274.8,121.2v-8.4c0-1.2-0.2-2.1-0.7-2.7s-1.2-0.9-2.2-0.9c-1.3,0-2.3,0.4-2.9,1.1s-0.9,1.8-0.9,3.4v7.5h-1.2v-8.7
		c0-2.1-1-3.2-3-3.2c-1.3,0-2.3,0.4-2.9,1.2s-0.9,2-0.9,3.7v7h-1.2v-12.7h1l0.2,1.7h0.1c0.4-0.6,0.9-1.1,1.5-1.5s1.4-0.5,2.1-0.5
		c2,0,3.3,0.8,3.9,2.3h0c0.4-0.7,1-1.3,1.7-1.7s1.5-0.6,2.4-0.6c1.4,0,2.4,0.4,3.1,1.1s1,1.9,1,3.5v8.3H274.8z"/>
	<path d="M285.2,121.5c-1.9,0-3.3-0.6-4.3-1.7s-1.6-2.7-1.6-4.8c0-2,0.5-3.7,1.5-4.9s2.3-1.8,4-1.8c1.5,0,2.7,0.5,3.6,1.6
		s1.3,2.5,1.3,4.3v0.9h-9.2c0,1.8,0.4,3.1,1.2,4s1.9,1.4,3.4,1.4c0.7,0,1.4-0.1,1.9-0.2s1.2-0.3,2.1-0.7v1.1c-0.7,0.3-1.4,0.5-2,0.6
		S285.9,121.5,285.2,121.5z M284.8,109.3c-1.2,0-2.2,0.4-3,1.2s-1.2,2-1.3,3.5h7.9c0-1.5-0.3-2.6-1-3.5S286,109.3,284.8,109.3z"/>
	<path d="M299.3,104.9c0-0.8,0.2-1.1,0.7-1.1c0.2,0,0.4,0.1,0.6,0.3s0.2,0.5,0.2,0.8c0,0.4-0.1,0.6-0.2,0.8s-0.3,0.3-0.6,0.3
		C299.5,106.1,299.3,105.7,299.3,104.9z M300.6,121.2h-1.2v-12.7h1.2V121.2z"/>
	<path d="M313.7,121.2V113c0-1.3-0.3-2.2-0.8-2.8s-1.4-0.9-2.5-0.9c-1.5,0-2.6,0.4-3.3,1.2s-1.1,2-1.1,3.7v7h-1.2v-12.7h1l0.2,1.7
		h0.1c0.8-1.3,2.3-2,4.4-2c2.9,0,4.3,1.6,4.3,4.7v8.3H313.7z"/>
	<path d="M323.1,108.5h1.2l2.7,7.1c0.8,2.2,1.3,3.7,1.6,4.4h0.1c0.3-1,0.9-2.5,1.6-4.5l2.7-7.1h1.2l-5.7,14.8
		c-0.5,1.2-0.8,2-1.2,2.4s-0.7,0.7-1.1,0.9s-0.9,0.3-1.5,0.3c-0.4,0-0.9-0.1-1.5-0.2v-1c0.5,0.1,0.9,0.2,1.5,0.2
		c0.4,0,0.8-0.1,1.1-0.3s0.6-0.5,0.8-0.9c0.2-0.4,0.5-1,0.9-1.9s0.5-1.4,0.6-1.7L323.1,108.5z"/>
	<path d="M346.8,114.8c0,2.1-0.5,3.7-1.5,4.9s-2.4,1.8-4.2,1.8c-1.1,0-2.1-0.3-3-0.8s-1.5-1.3-2-2.3s-0.7-2.2-0.7-3.5
		c0-2.1,0.5-3.7,1.5-4.9s2.4-1.7,4.1-1.7c1.8,0,3.1,0.6,4.1,1.8S346.8,112.8,346.8,114.8z M336.7,114.8c0,1.8,0.4,3.1,1.2,4.1
		s1.9,1.5,3.3,1.5s2.5-0.5,3.3-1.5s1.2-2.3,1.2-4.1c0-1.8-0.4-3.1-1.2-4.1s-1.9-1.5-3.3-1.5s-2.5,0.5-3.3,1.4
		S336.7,113.1,336.7,114.8z"/>
	<path d="M351.3,108.5v8.2c0,1.3,0.3,2.2,0.8,2.8s1.4,0.9,2.5,0.9c1.5,0,2.6-0.4,3.3-1.1s1.1-2,1.1-3.7v-7h1.1v12.7h-1l-0.2-1.8H359
		c-0.8,1.3-2.3,2-4.4,2c-2.9,0-4.3-1.6-4.3-4.7v-8.3H351.3z"/>
	<path d="M369.5,108.2c0.5,0,1.1,0.1,1.7,0.2l-0.2,1.1c-0.5-0.1-1.1-0.2-1.7-0.2c-1.1,0-2,0.5-2.7,1.4s-1,2.1-1,3.5v7h-1.2v-12.7h1
		l0.1,2.3h0.1c0.5-0.9,1.1-1.6,1.7-2S368.7,108.2,369.5,108.2z"/>
	<path d="M385.1,121.5c-1.8,0-3.2-0.6-4.3-1.7s-1.5-2.8-1.5-4.8c0-2.1,0.5-3.8,1.6-4.9s2.5-1.8,4.4-1.8c1.1,0,2.2,0.2,3.2,0.6
		l-0.3,1c-1.1-0.4-2.1-0.6-2.9-0.6c-1.6,0-2.7,0.5-3.6,1.4s-1.2,2.4-1.2,4.2c0,1.7,0.4,3.1,1.2,4s1.9,1.5,3.4,1.5
		c1.2,0,2.2-0.2,3.2-0.6v1.1C387.5,121.3,386.5,121.5,385.1,121.5z"/>
	<path d="M402,114.8c0,2.1-0.5,3.7-1.5,4.9s-2.4,1.8-4.2,1.8c-1.1,0-2.1-0.3-3-0.8s-1.5-1.3-2-2.3s-0.7-2.2-0.7-3.5
		c0-2.1,0.5-3.7,1.5-4.9s2.4-1.7,4.1-1.7c1.8,0,3.1,0.6,4.1,1.8S402,112.8,402,114.8z M391.9,114.8c0,1.8,0.4,3.1,1.2,4.1
		s1.9,1.5,3.3,1.5s2.5-0.5,3.3-1.5s1.2-2.3,1.2-4.1c0-1.8-0.4-3.1-1.2-4.1s-1.9-1.5-3.3-1.5s-2.5,0.5-3.3,1.4
		S391.9,113.1,391.9,114.8z"/>
	<path d="M414.4,121.2V113c0-1.3-0.3-2.2-0.8-2.8s-1.4-0.9-2.5-0.9c-1.5,0-2.6,0.4-3.3,1.2s-1.1,2-1.1,3.7v7h-1.2v-12.7h1l0.2,1.7
		h0.1c0.8-1.3,2.3-2,4.4-2c2.9,0,4.3,1.6,4.3,4.7v8.3H414.4z"/>
	<path d="M423,120.4c0.7,0,1.4-0.1,1.9-0.2v0.9c-0.6,0.2-1.2,0.3-1.9,0.3c-1.1,0-2-0.3-2.5-0.9s-0.8-1.5-0.8-2.8v-8.2h-1.9v-0.7
		l1.9-0.5l0.6-2.9h0.6v3.1h3.7v1h-3.7v8.1c0,1,0.2,1.7,0.5,2.2S422.3,120.4,423,120.4z"/>
	<path d="M432.9,121.5c-1.9,0-3.3-0.6-4.3-1.7s-1.6-2.7-1.6-4.8c0-2,0.5-3.7,1.5-4.9s2.3-1.8,4-1.8c1.5,0,2.7,0.5,3.6,1.6
		s1.3,2.5,1.3,4.3v0.9h-9.2c0,1.8,0.4,3.1,1.2,4s1.9,1.4,3.4,1.4c0.7,0,1.4-0.1,1.9-0.2s1.2-0.3,2.1-0.7v1.1c-0.7,0.3-1.4,0.5-2,0.6
		S433.6,121.5,432.9,121.5z M432.5,109.3c-1.2,0-2.2,0.4-3,1.2s-1.2,2-1.3,3.5h7.9c0-1.5-0.3-2.6-1-3.5S433.7,109.3,432.5,109.3z"/>
	<path d="M449.8,121.2V113c0-1.3-0.3-2.2-0.8-2.8s-1.4-0.9-2.5-0.9c-1.5,0-2.6,0.4-3.3,1.2s-1.1,2-1.1,3.7v7h-1.2v-12.7h1l0.2,1.7
		h0.1c0.8-1.3,2.3-2,4.4-2c2.9,0,4.3,1.6,4.3,4.7v8.3H449.8z"/>
	<path d="M458.4,120.4c0.7,0,1.4-0.1,1.9-0.2v0.9c-0.6,0.2-1.2,0.3-1.9,0.3c-1.1,0-2-0.3-2.5-0.9s-0.8-1.5-0.8-2.8v-8.2h-1.9v-0.7
		l1.9-0.5l0.6-2.9h0.6v3.1h3.7v1h-3.7v8.1c0,1,0.2,1.7,0.5,2.2S457.7,120.4,458.4,120.4z"/>
	<path d="M462.9,120.3c0-0.8,0.3-1.1,0.9-1.1c0.6,0,1,0.4,1,1.1s-0.3,1.1-1,1.1C463.2,121.5,462.9,121.1,462.9,120.3z"/>
	<path d="M30.9,156.5c-0.5,0-1-0.1-1.3-0.2v-0.8c0.5,0.1,0.9,0.2,1.3,0.2c1.4,0,2.1-0.8,2.1-2.3v-12.9h0.9v12.8
		C33.9,155.4,32.9,156.5,30.9,156.5z"/>
	<path d="M38,143.7v6.2c0,1,0.2,1.7,0.6,2.1s1,0.7,1.9,0.7c1.1,0,2-0.3,2.5-0.9s0.8-1.5,0.8-2.8v-5.3h0.9v9.6h-0.7l-0.2-1.3h-0.1
		c-0.6,1-1.7,1.5-3.3,1.5c-2.2,0-3.3-1.2-3.3-3.5v-6.2H38z"/>
	<path d="M53.8,150.7c0,0.9-0.3,1.5-1,2s-1.6,0.7-2.8,0.7c-1.3,0-2.3-0.2-3-0.6v-0.9c1,0.5,2,0.7,3,0.7c0.9,0,1.7-0.2,2.1-0.5
		s0.7-0.7,0.7-1.3c0-0.5-0.2-0.9-0.6-1.2s-1-0.7-1.9-1c-1-0.3-1.6-0.6-2-0.9s-0.7-0.5-0.9-0.8s-0.3-0.7-0.3-1.1
		c0-0.7,0.3-1.3,0.9-1.7s1.4-0.6,2.5-0.6c1,0,2,0.2,2.9,0.6l-0.3,0.8c-0.9-0.4-1.8-0.6-2.6-0.6c-0.8,0-1.4,0.1-1.9,0.4
		s-0.7,0.6-0.7,1.1c0,0.5,0.2,0.9,0.5,1.2s1,0.6,2.1,1c0.9,0.3,1.5,0.6,1.9,0.8s0.7,0.5,0.9,0.8S53.8,150.3,53.8,150.7z"/>
	<path d="M58.8,152.6c0.6,0,1,0,1.4-0.1v0.7c-0.4,0.1-0.9,0.2-1.5,0.2c-0.8,0-1.5-0.2-1.9-0.7s-0.6-1.2-0.6-2.1v-6.2h-1.4v-0.5
		l1.4-0.4l0.4-2.2h0.4v2.3H60v0.8h-2.8v6c0,0.7,0.1,1.3,0.4,1.6S58.2,152.6,58.8,152.6z"/>
	<path d="M66.8,141c0-0.6,0.2-0.8,0.6-0.8c0.2,0,0.3,0.1,0.4,0.2s0.2,0.4,0.2,0.6c0,0.3-0.1,0.5-0.2,0.6s-0.2,0.2-0.4,0.2
		C67,141.9,66.8,141.6,66.8,141z M67.8,153.2H67v-9.6h0.9V153.2z"/>
	<path d="M77.7,153.2V147c0-1-0.2-1.7-0.6-2.1s-1-0.7-1.9-0.7c-1.1,0-2,0.3-2.5,0.9s-0.8,1.5-0.8,2.8v5.3H71v-9.6h0.7l0.2,1.3H72
		c0.6-1,1.7-1.5,3.3-1.5c2.2,0,3.3,1.2,3.3,3.5v6.2H77.7z"/>
	<path d="M87.6,150.7c0,0.9-0.3,1.5-1,2s-1.6,0.7-2.8,0.7c-1.3,0-2.3-0.2-3-0.6v-0.9c1,0.5,2,0.7,3,0.7c0.9,0,1.7-0.2,2.1-0.5
		s0.7-0.7,0.7-1.3c0-0.5-0.2-0.9-0.6-1.2s-1-0.7-1.9-1c-1-0.3-1.6-0.6-2-0.9s-0.7-0.5-0.9-0.8s-0.3-0.7-0.3-1.1
		c0-0.7,0.3-1.3,0.9-1.7s1.4-0.6,2.5-0.6c1,0,2,0.2,2.9,0.6l-0.3,0.8c-0.9-0.4-1.8-0.6-2.6-0.6c-0.8,0-1.4,0.1-1.9,0.4
		s-0.7,0.6-0.7,1.1c0,0.5,0.2,0.9,0.5,1.2s1,0.6,2.1,1c0.9,0.3,1.5,0.6,1.9,0.8s0.7,0.5,0.9,0.8S87.6,150.3,87.6,150.7z"/>
	<path d="M93.9,153.4c-1.4,0-2.5-0.4-3.2-1.3s-1.2-2.1-1.2-3.6c0-1.5,0.4-2.7,1.1-3.7s1.8-1.4,3-1.4c1.1,0,2,0.4,2.7,1.2
		s1,1.9,1,3.2v0.7h-6.9c0,1.3,0.3,2.3,0.9,3s1.5,1,2.6,1c0.5,0,1,0,1.4-0.1s0.9-0.2,1.6-0.5v0.8c-0.5,0.2-1,0.4-1.5,0.5
		S94.4,153.4,93.9,153.4z M93.6,144.3c-0.9,0-1.7,0.3-2.2,0.9s-0.9,1.5-1,2.6h5.9c0-1.1-0.2-2-0.7-2.6S94.5,144.3,93.6,144.3z"/>
	<path d="M103.7,143.5c0.4,0,0.8,0,1.3,0.1l-0.2,0.8c-0.4-0.1-0.8-0.1-1.2-0.1c-0.8,0-1.5,0.3-2,1s-0.8,1.6-0.8,2.6v5.3h-0.9v-9.6
		h0.7l0.1,1.7h0.1c0.4-0.7,0.8-1.2,1.3-1.5S103,143.5,103.7,143.5z"/>
	<path d="M109.4,152.6c0.6,0,1,0,1.4-0.1v0.7c-0.4,0.1-0.9,0.2-1.5,0.2c-0.8,0-1.5-0.2-1.9-0.7s-0.6-1.2-0.6-2.1v-6.2h-1.4v-0.5
		l1.4-0.4l0.4-2.2h0.4v2.3h2.8v0.8h-2.8v6c0,0.7,0.1,1.3,0.4,1.6S108.9,152.6,109.4,152.6z"/>
	<path d="M123.4,153.2l-0.2-1.5h-0.1c-0.5,0.6-1,1-1.5,1.3s-1.1,0.4-1.8,0.4c-0.9,0-1.7-0.2-2.2-0.7s-0.8-1.1-0.8-2
		c0-0.9,0.4-1.7,1.2-2.2s1.9-0.8,3.4-0.8l1.8-0.1V147c0-0.9-0.2-1.6-0.6-2.1s-1-0.7-1.8-0.7c-0.9,0-1.8,0.2-2.8,0.7l-0.3-0.8
		c1-0.5,2.1-0.7,3.1-0.7c1,0,1.8,0.3,2.4,0.8s0.8,1.4,0.8,2.5v6.4H123.4z M119.9,152.6c1,0,1.8-0.3,2.4-0.9s0.9-1.4,0.9-2.4v-0.9
		l-1.7,0.1c-1.3,0.1-2.3,0.3-2.9,0.6s-0.9,0.9-0.9,1.7c0,0.6,0.2,1.1,0.5,1.4S119.2,152.6,119.9,152.6z"/>
	<path d="M137.8,150.7c0,0.9-0.3,1.5-1,2s-1.6,0.7-2.8,0.7c-1.3,0-2.3-0.2-3-0.6v-0.9c1,0.5,2,0.7,3,0.7c0.9,0,1.7-0.2,2.1-0.5
		s0.7-0.7,0.7-1.3c0-0.5-0.2-0.9-0.6-1.2s-1-0.7-1.9-1c-1-0.3-1.6-0.6-2-0.9s-0.7-0.5-0.9-0.8s-0.3-0.7-0.3-1.1
		c0-0.7,0.3-1.3,0.9-1.7s1.4-0.6,2.5-0.6c1,0,2,0.2,2.9,0.6l-0.3,0.8c-0.9-0.4-1.8-0.6-2.6-0.6c-0.8,0-1.4,0.1-1.9,0.4
		s-0.7,0.6-0.7,1.1c0,0.5,0.2,0.9,0.5,1.2s1,0.6,2.1,1c0.9,0.3,1.5,0.6,1.9,0.8s0.7,0.5,0.9,0.8S137.8,150.3,137.8,150.7z"/>
	<path d="M146.9,153.2V147c0-1-0.2-1.7-0.6-2.1s-1-0.7-1.9-0.7c-1.1,0-2,0.3-2.5,0.9s-0.8,1.5-0.8,2.8v5.3h-0.9v-13.7h0.9v4.4l0,1.2
		h0.1c0.4-0.6,0.8-1,1.4-1.2s1.2-0.4,2-0.4c2.2,0,3.3,1.2,3.3,3.5v6.2H146.9z"/>
	<path d="M158.7,148.4c0,1.6-0.4,2.8-1.1,3.7s-1.8,1.3-3.1,1.3c-0.8,0-1.6-0.2-2.2-0.6s-1.1-1-1.5-1.7s-0.5-1.6-0.5-2.6
		c0-1.6,0.4-2.8,1.1-3.6s1.8-1.3,3.1-1.3c1.3,0,2.3,0.4,3.1,1.3S158.7,146.9,158.7,148.4z M151.2,148.4c0,1.3,0.3,2.3,0.9,3.1
		s1.4,1.1,2.4,1.1s1.9-0.4,2.4-1.1s0.9-1.8,0.9-3.1c0-1.3-0.3-2.3-0.9-3.1s-1.4-1.1-2.5-1.1s-1.9,0.4-2.4,1.1
		S151.2,147.1,151.2,148.4z"/>
	<path d="M165.1,143.5c0.4,0,0.8,0,1.3,0.1l-0.2,0.8c-0.4-0.1-0.8-0.1-1.2-0.1c-0.8,0-1.5,0.3-2,1s-0.8,1.6-0.8,2.6v5.3h-0.9v-9.6
		h0.7l0.1,1.7h0.1c0.4-0.7,0.8-1.2,1.3-1.5S164.5,143.5,165.1,143.5z"/>
	<path d="M170.9,152.6c0.6,0,1,0,1.4-0.1v0.7c-0.4,0.1-0.9,0.2-1.5,0.2c-0.8,0-1.5-0.2-1.9-0.7s-0.6-1.2-0.6-2.1v-6.2H167v-0.5
		l1.4-0.4l0.4-2.2h0.4v2.3h2.8v0.8h-2.8v6c0,0.7,0.1,1.3,0.4,1.6S170.4,152.6,170.9,152.6z"/>
	<path d="M178.2,153.4c-1.4,0-2.4-0.4-3.2-1.3s-1.2-2.1-1.2-3.6c0-1.6,0.4-2.8,1.2-3.7s1.9-1.3,3.3-1.3c0.8,0,1.6,0.1,2.4,0.4
		l-0.2,0.8c-0.8-0.3-1.5-0.4-2.2-0.4c-1.2,0-2.1,0.4-2.7,1.1s-0.9,1.8-0.9,3.1c0,1.3,0.3,2.3,0.9,3s1.4,1.1,2.5,1.1
		c0.9,0,1.7-0.2,2.4-0.5v0.8C180,153.2,179.2,153.4,178.2,153.4z"/>
	<path d="M190.9,148.4c0,1.6-0.4,2.8-1.1,3.7s-1.8,1.3-3.1,1.3c-0.8,0-1.6-0.2-2.2-0.6s-1.1-1-1.5-1.7s-0.5-1.6-0.5-2.6
		c0-1.6,0.4-2.8,1.1-3.6s1.8-1.3,3.1-1.3c1.3,0,2.3,0.4,3.1,1.3S190.9,146.9,190.9,148.4z M183.3,148.4c0,1.3,0.3,2.3,0.9,3.1
		s1.4,1.1,2.4,1.1s1.9-0.4,2.4-1.1s0.9-1.8,0.9-3.1c0-1.3-0.3-2.3-0.9-3.1s-1.4-1.1-2.5-1.1s-1.9,0.4-2.4,1.1
		S183.3,147.1,183.3,148.4z"/>
	<path d="M197,143.5c0.7,0,1.3,0.1,1.8,0.4s1,0.7,1.4,1.3h0.1c0-0.7-0.1-1.5-0.1-2.2v-3.4h0.9v13.7h-0.6l-0.2-1.5h-0.1
		c-0.7,1.1-1.8,1.6-3.1,1.6c-1.3,0-2.3-0.4-3-1.2s-1-2-1-3.6c0-1.7,0.3-2.9,1-3.8S195.7,143.5,197,143.5z M197,144.3
		c-1,0-1.8,0.4-2.4,1.1s-0.8,1.8-0.8,3.2c0,2.7,1.1,4.1,3.2,4.1c1.1,0,1.9-0.3,2.4-0.9s0.8-1.7,0.8-3.1v-0.1c0-1.5-0.2-2.5-0.7-3.2
		S198.1,144.3,197,144.3z"/>
	<path d="M208.1,153.4c-1.4,0-2.5-0.4-3.2-1.3s-1.2-2.1-1.2-3.6c0-1.5,0.4-2.7,1.1-3.7s1.8-1.4,3-1.4c1.1,0,2,0.4,2.7,1.2
		s1,1.9,1,3.2v0.7h-6.9c0,1.3,0.3,2.3,0.9,3s1.5,1,2.6,1c0.5,0,1,0,1.4-0.1s0.9-0.2,1.6-0.5v0.8c-0.5,0.2-1,0.4-1.5,0.5
		S208.6,153.4,208.1,153.4z M207.8,144.3c-0.9,0-1.7,0.3-2.2,0.9s-0.9,1.5-1,2.6h5.9c0-1.1-0.2-2-0.7-2.6S208.7,144.3,207.8,144.3z"
		/>
	<path d="M226.7,148.4c0,1.6-0.4,2.8-1.1,3.7s-1.8,1.3-3.1,1.3c-0.8,0-1.6-0.2-2.2-0.6s-1.1-1-1.5-1.7s-0.5-1.6-0.5-2.6
		c0-1.6,0.4-2.8,1.1-3.6s1.8-1.3,3.1-1.3c1.3,0,2.3,0.4,3.1,1.3S226.7,146.9,226.7,148.4z M219.1,148.4c0,1.3,0.3,2.3,0.9,3.1
		s1.4,1.1,2.4,1.1s1.9-0.4,2.4-1.1s0.9-1.8,0.9-3.1c0-1.3-0.3-2.3-0.9-3.1s-1.4-1.1-2.5-1.1s-1.9,0.4-2.4,1.1
		S219.1,147.1,219.1,148.4z"/>
	<path d="M233.1,143.5c0.4,0,0.8,0,1.3,0.1l-0.2,0.8c-0.4-0.1-0.8-0.1-1.2-0.1c-0.8,0-1.5,0.3-2,1s-0.8,1.6-0.8,2.6v5.3h-0.9v-9.6
		h0.7l0.1,1.7h0.1c0.4-0.7,0.8-1.2,1.3-1.5S232.5,143.5,233.1,143.5z"/>
	<path d="M241.8,143.7v6.2c0,1,0.2,1.7,0.6,2.1s1,0.7,1.9,0.7c1.1,0,2-0.3,2.5-0.9s0.8-1.5,0.8-2.8v-5.3h0.9v9.6h-0.7l-0.2-1.3h-0.1
		c-0.6,1-1.7,1.5-3.3,1.5c-2.2,0-3.3-1.2-3.3-3.5v-6.2H241.8z"/>
	<path d="M257.6,150.7c0,0.9-0.3,1.5-1,2s-1.6,0.7-2.8,0.7c-1.3,0-2.3-0.2-3-0.6v-0.9c1,0.5,2,0.7,3,0.7c0.9,0,1.7-0.2,2.1-0.5
		s0.7-0.7,0.7-1.3c0-0.5-0.2-0.9-0.6-1.2s-1-0.7-1.9-1c-1-0.3-1.6-0.6-2-0.9s-0.7-0.5-0.9-0.8s-0.3-0.7-0.3-1.1
		c0-0.7,0.3-1.3,0.9-1.7s1.4-0.6,2.5-0.6c1,0,2,0.2,2.9,0.6l-0.3,0.8c-0.9-0.4-1.8-0.6-2.6-0.6c-0.8,0-1.4,0.1-1.9,0.4
		s-0.7,0.6-0.7,1.1c0,0.5,0.2,0.9,0.5,1.2s1,0.6,2.1,1c0.9,0.3,1.5,0.6,1.9,0.8s0.7,0.5,0.9,0.8S257.6,150.3,257.6,150.7z"/>
	<path d="M263.9,153.4c-1.4,0-2.5-0.4-3.2-1.3s-1.2-2.1-1.2-3.6c0-1.5,0.4-2.7,1.1-3.7s1.8-1.4,3-1.4c1.1,0,2,0.4,2.7,1.2
		s1,1.9,1,3.2v0.7h-6.9c0,1.3,0.3,2.3,0.9,3s1.5,1,2.6,1c0.5,0,1,0,1.4-0.1s0.9-0.2,1.6-0.5v0.8c-0.5,0.2-1,0.4-1.5,0.5
		S264.4,153.4,263.9,153.4z M263.6,144.3c-0.9,0-1.7,0.3-2.2,0.9s-0.9,1.5-1,2.6h5.9c0-1.1-0.2-2-0.7-2.6S264.5,144.3,263.6,144.3z"
		/>
	<path d="M280.4,153.2l-0.2-1.5h-0.1c-0.5,0.6-1,1-1.5,1.3s-1.1,0.4-1.8,0.4c-0.9,0-1.7-0.2-2.2-0.7s-0.8-1.1-0.8-2
		c0-0.9,0.4-1.7,1.2-2.2s1.9-0.8,3.4-0.8l1.8-0.1V147c0-0.9-0.2-1.6-0.6-2.1s-1-0.7-1.8-0.7c-0.9,0-1.8,0.2-2.8,0.7l-0.3-0.8
		c1-0.5,2.1-0.7,3.1-0.7c1,0,1.8,0.3,2.4,0.8s0.8,1.4,0.8,2.5v6.4H280.4z M276.9,152.6c1,0,1.8-0.3,2.4-0.9s0.9-1.4,0.9-2.4v-0.9
		l-1.7,0.1c-1.3,0.1-2.3,0.3-2.9,0.6s-0.9,0.9-0.9,1.7c0,0.6,0.2,1.1,0.5,1.4S276.2,152.6,276.9,152.6z"/>
	<path d="M295.4,153.2V147c0-1-0.2-1.7-0.6-2.1s-1-0.7-1.9-0.7c-1.1,0-2,0.3-2.5,0.9s-0.8,1.5-0.8,2.8v5.3h-0.9v-13.7h0.9v4.4l0,1.2
		h0.1c0.4-0.6,0.8-1,1.4-1.2s1.2-0.4,2-0.4c2.2,0,3.3,1.2,3.3,3.5v6.2H295.4z"/>
	<path d="M305.2,153.2l-0.2-1.5h-0.1c-0.5,0.6-1,1-1.5,1.3s-1.1,0.4-1.8,0.4c-0.9,0-1.7-0.2-2.2-0.7s-0.8-1.1-0.8-2
		c0-0.9,0.4-1.7,1.2-2.2s1.9-0.8,3.4-0.8l1.8-0.1V147c0-0.9-0.2-1.6-0.6-2.1s-1-0.7-1.8-0.7c-0.9,0-1.8,0.2-2.8,0.7l-0.3-0.8
		c1-0.5,2.1-0.7,3.1-0.7c1,0,1.8,0.3,2.4,0.8s0.8,1.4,0.8,2.5v6.4H305.2z M301.7,152.6c1,0,1.8-0.3,2.4-0.9s0.9-1.4,0.9-2.4v-0.9
		l-1.7,0.1c-1.3,0.1-2.3,0.3-2.9,0.6s-0.9,0.9-0.9,1.7c0,0.6,0.2,1.1,0.5,1.4S301,152.6,301.7,152.6z"/>
	<path d="M315.6,153.2V147c0-1-0.2-1.7-0.6-2.1s-1-0.7-1.9-0.7c-1.1,0-2,0.3-2.5,0.9s-0.8,1.5-0.8,2.8v5.3h-0.9v-9.6h0.7l0.2,1.3
		h0.1c0.6-1,1.7-1.5,3.3-1.5c2.2,0,3.3,1.2,3.3,3.5v6.2H315.6z"/>
	<path d="M323.1,143.5c0.7,0,1.3,0.1,1.8,0.4s1,0.7,1.4,1.3h0.1c0-0.7-0.1-1.5-0.1-2.2v-3.4h0.9v13.7h-0.6l-0.2-1.5h-0.1
		c-0.7,1.1-1.8,1.6-3.1,1.6c-1.3,0-2.3-0.4-3-1.2s-1-2-1-3.6c0-1.7,0.3-2.9,1-3.8S321.7,143.5,323.1,143.5z M323.1,144.3
		c-1,0-1.8,0.4-2.4,1.1s-0.8,1.8-0.8,3.2c0,2.7,1.1,4.1,3.2,4.1c1.1,0,1.9-0.3,2.4-0.9s0.8-1.7,0.8-3.1v-0.1c0-1.5-0.2-2.5-0.7-3.2
		S324.2,144.3,323.1,144.3z"/>
	<path d="M328.7,143.7h0.9l2,5.4c0.6,1.6,1,2.8,1.2,3.3h0.1c0.2-0.8,0.6-1.9,1.2-3.4l2-5.3h0.9l-4.3,11.1c-0.3,0.9-0.6,1.5-0.9,1.8
		s-0.5,0.6-0.8,0.7s-0.7,0.2-1.1,0.2c-0.3,0-0.7-0.1-1.1-0.2v-0.8c0.3,0.1,0.7,0.1,1.1,0.1c0.3,0,0.6-0.1,0.8-0.2s0.4-0.4,0.6-0.7
		s0.4-0.8,0.6-1.4s0.4-1.1,0.5-1.3L328.7,143.7z"/>
	<path d="M355.1,153.2V147c0-0.9-0.2-1.6-0.5-2s-0.9-0.6-1.7-0.6c-1,0-1.7,0.3-2.2,0.8s-0.7,1.4-0.7,2.5v5.6h-0.9v-6.5
		c0-1.6-0.7-2.4-2.2-2.4c-1,0-1.7,0.3-2.2,0.9s-0.7,1.5-0.7,2.8v5.3h-0.9v-9.6h0.7l0.2,1.3h0.1c0.3-0.5,0.6-0.8,1.1-1.1
		s1-0.4,1.6-0.4c1.5,0,2.5,0.6,2.9,1.7h0c0.3-0.5,0.7-1,1.3-1.3s1.1-0.4,1.8-0.4c1,0,1.8,0.3,2.3,0.8s0.8,1.4,0.8,2.7v6.2H355.1z"/>
	<path d="M363,153.4c-1.4,0-2.5-0.4-3.2-1.3s-1.2-2.1-1.2-3.6c0-1.5,0.4-2.7,1.1-3.7s1.8-1.4,3-1.4c1.1,0,2,0.4,2.7,1.2s1,1.9,1,3.2
		v0.7h-6.9c0,1.3,0.3,2.3,0.9,3s1.5,1,2.6,1c0.5,0,1,0,1.4-0.1s0.9-0.2,1.6-0.5v0.8c-0.5,0.2-1,0.4-1.5,0.5S363.5,153.4,363,153.4z
		 M362.7,144.3c-0.9,0-1.7,0.3-2.2,0.9s-0.9,1.5-1,2.6h5.9c0-1.1-0.2-2-0.7-2.6S363.6,144.3,362.7,144.3z"/>
	<path d="M375.6,153.2V147c0-1-0.2-1.7-0.6-2.1s-1-0.7-1.9-0.7c-1.1,0-2,0.3-2.5,0.9s-0.8,1.5-0.8,2.8v5.3H369v-9.6h0.7l0.2,1.3h0.1
		c0.6-1,1.7-1.5,3.3-1.5c2.2,0,3.3,1.2,3.3,3.5v6.2H375.6z"/>
	<path d="M380.3,143.7v6.2c0,1,0.2,1.7,0.6,2.1s1,0.7,1.9,0.7c1.1,0,2-0.3,2.5-0.9s0.8-1.5,0.8-2.8v-5.3h0.9v9.6h-0.7l-0.2-1.3h-0.1
		c-0.6,1-1.7,1.5-3.3,1.5c-2.2,0-3.3-1.2-3.3-3.5v-6.2H380.3z"/>
	<path d="M394.8,141c0-0.6,0.2-0.8,0.6-0.8c0.2,0,0.3,0.1,0.4,0.2s0.2,0.4,0.2,0.6c0,0.3-0.1,0.5-0.2,0.6s-0.2,0.2-0.4,0.2
		C394.9,141.9,394.8,141.6,394.8,141z M395.8,153.2h-0.9v-9.6h0.9V153.2z"/>
	<path d="M405.6,153.2V147c0-1-0.2-1.7-0.6-2.1s-1-0.7-1.9-0.7c-1.1,0-2,0.3-2.5,0.9s-0.8,1.5-0.8,2.8v5.3H399v-9.6h0.7l0.2,1.3h0.1
		c0.6-1,1.7-1.5,3.3-1.5c2.2,0,3.3,1.2,3.3,3.5v6.2H405.6z"/>
	<path d="M416.8,152.6c0.6,0,1,0,1.4-0.1v0.7c-0.4,0.1-0.9,0.2-1.5,0.2c-0.8,0-1.5-0.2-1.9-0.7s-0.6-1.2-0.6-2.1v-6.2h-1.4v-0.5
		l1.4-0.4l0.4-2.2h0.4v2.3h2.8v0.8h-2.8v6c0,0.7,0.1,1.3,0.4,1.6C415.8,152.4,416.2,152.6,416.8,152.6z"/>
	<path d="M426.9,153.2V147c0-1-0.2-1.7-0.6-2.1s-1-0.7-1.9-0.7c-1.1,0-2,0.3-2.5,0.9c-0.5,0.6-0.8,1.5-0.8,2.8v5.3h-0.9v-13.7h0.9
		v4.4l0,1.2h0.1c0.4-0.6,0.8-1,1.4-1.2s1.2-0.4,2-0.4c2.2,0,3.3,1.2,3.3,3.5v6.2H426.9z"/>
	<path d="M434.8,153.4c-1.4,0-2.5-0.4-3.2-1.3c-0.8-0.9-1.2-2.1-1.2-3.6c0-1.5,0.4-2.7,1.1-3.7s1.8-1.4,3-1.4c1.1,0,2,0.4,2.7,1.2
		s1,1.9,1,3.2v0.7h-6.9c0,1.3,0.3,2.3,0.9,3c0.6,0.7,1.5,1,2.6,1c0.5,0,1,0,1.4-0.1c0.4-0.1,0.9-0.2,1.6-0.5v0.8
		c-0.5,0.2-1,0.4-1.5,0.5S435.3,153.4,434.8,153.4z M434.5,144.3c-0.9,0-1.7,0.3-2.2,0.9s-0.9,1.5-1,2.6h5.9c0-1.1-0.2-2-0.7-2.6
		S435.3,144.3,434.5,144.3z"/>
	<path d="M449.3,153.4c-1.4,0-2.5-0.4-3.2-1.3c-0.8-0.9-1.2-2.1-1.2-3.6c0-1.5,0.4-2.7,1.1-3.7s1.8-1.4,3-1.4c1.1,0,2,0.4,2.7,1.2
		s1,1.9,1,3.2v0.7h-6.9c0,1.3,0.3,2.3,0.9,3c0.6,0.7,1.5,1,2.6,1c0.5,0,1,0,1.4-0.1c0.4-0.1,0.9-0.2,1.6-0.5v0.8
		c-0.5,0.2-1,0.4-1.5,0.5S449.9,153.4,449.3,153.4z M449.1,144.3c-0.9,0-1.7,0.3-2.2,0.9s-0.9,1.5-1,2.6h5.9c0-1.1-0.2-2-0.7-2.6
		S449.9,144.3,449.1,144.3z"/>
	<path d="M458.8,143.5c0.7,0,1.3,0.1,1.8,0.4s1,0.7,1.4,1.3h0.1c0-0.7-0.1-1.5-0.1-2.2v-3.4h0.9v13.7h-0.6l-0.2-1.5H462
		c-0.7,1.1-1.8,1.6-3.1,1.6c-1.3,0-2.3-0.4-3-1.2s-1-2-1-3.6c0-1.7,0.3-2.9,1-3.8S457.5,143.5,458.8,143.5z M458.8,144.3
		c-1,0-1.8,0.4-2.4,1.1s-0.8,1.8-0.8,3.2c0,2.7,1.1,4.1,3.2,4.1c1.1,0,1.9-0.3,2.4-0.9s0.8-1.7,0.8-3.1v-0.1c0-1.5-0.2-2.5-0.7-3.2
		C460.7,144.6,459.9,144.3,458.8,144.3z"/>
	<path d="M465.9,141c0-0.6,0.2-0.8,0.6-0.8c0.2,0,0.3,0.1,0.4,0.2c0.1,0.1,0.2,0.4,0.2,0.6c0,0.3-0.1,0.5-0.2,0.6
		c-0.1,0.2-0.2,0.2-0.4,0.2C466.1,141.9,465.9,141.6,465.9,141z M466.9,153.2H466v-9.6h0.9V153.2z"/>
	<path d="M472.6,152.6c0.6,0,1,0,1.4-0.1v0.7c-0.4,0.1-0.9,0.2-1.5,0.2c-0.8,0-1.5-0.2-1.9-0.7s-0.6-1.2-0.6-2.1v-6.2h-1.4v-0.5
		l1.4-0.4l0.4-2.2h0.4v2.3h2.8v0.8H471v6c0,0.7,0.1,1.3,0.4,1.6S472.1,152.6,472.6,152.6z"/>
	<path d="M484,148.4c0,1.6-0.4,2.8-1.1,3.7s-1.8,1.3-3.1,1.3c-0.8,0-1.6-0.2-2.2-0.6s-1.1-1-1.5-1.7s-0.5-1.6-0.5-2.6
		c0-1.6,0.4-2.8,1.1-3.6s1.8-1.3,3.1-1.3c1.3,0,2.3,0.4,3.1,1.3C483.7,145.7,484,146.9,484,148.4z M476.5,148.4
		c0,1.3,0.3,2.3,0.9,3.1c0.6,0.7,1.4,1.1,2.4,1.1s1.9-0.4,2.4-1.1s0.9-1.8,0.9-3.1c0-1.3-0.3-2.3-0.9-3.1c-0.6-0.7-1.4-1.1-2.5-1.1
		s-1.9,0.4-2.4,1.1C476.8,146.1,476.5,147.1,476.5,148.4z"/>
	<path d="M490.5,143.5c0.4,0,0.8,0,1.3,0.1l-0.2,0.8c-0.4-0.1-0.8-0.1-1.2-0.1c-0.8,0-1.5,0.3-2,1s-0.8,1.6-0.8,2.6v5.3h-0.9v-9.6
		h0.7l0.1,1.7h0.1c0.4-0.7,0.8-1.2,1.3-1.5S489.8,143.5,490.5,143.5z"/>
	<path d="M493.5,152.5c0-0.6,0.2-0.9,0.7-0.9c0.5,0,0.7,0.3,0.7,0.9s-0.2,0.9-0.7,0.9C493.8,153.4,493.5,153.1,493.5,152.5z"/>
</g>
</svg>
