<?xml version="1.0" encoding="utf-8"?>
<!-- Generator: Adobe Illustrator 21.0.0, SVG Export Plug-In . SVG Version: 6.00 Build 0)  -->
<svg version="1.1" id="Livello_1" xmlns="http://www.w3.org/2000/svg" xmlns:xlink="http://www.w3.org/1999/xlink" x="0px" y="0px"
	 viewBox="0 0 772 250" style="enable-background:new 0 0 772 250;" xml:space="preserve">
<style type="text/css">
	.st0{fill:#3C3C3B;}
	.st1{fill:#FD0000;}
	.st2{fill:#FFED00;}
	.st3{fill:none;}
	.st4{fill:#B20F0B;}
	.st5{fill:#FFFFFF;}
	.st6{fill:#D0D0D0;}
</style>
<rect class="st0" width="772" height="250"/>
<circle class="st1" cx="647" cy="125" r="107.8"/>
<g>
	<path class="st2" d="M574.4,72.7c3.3,0,5.5-3.9,5.5-7.3c0-2.6-1.2-5-4-5c-0.2,0-0.7,0.1-1,0.1c-3.6,0.8-5.2,2.5-5.2,6
		C569.7,70.2,571.4,72.7,574.4,72.7z"/>
	<path class="st2" d="M728.4,76.5c-0.1,0-0.3,0-0.6,0c-7.7,1-12.2,10.6-12.2,18.8c0,7.4,3,12.6,3,19.5c0,3.7-1,6.6-4.5,6.6
		c-5.5,0-9-6.9-9-10.7c0-1.7,0.3-3.2,0.9-4.7c0.7-1.2,1.3-2.2,1.7-3.2c0.3-0.5,0.8-1,1.3-1.4c1.4-1.2,4.4-2.3,4.4-5.3
		c0-2.2-2-3.6-3.9-3.6c-3.2,0-7,3.7-9.6,8.4c-5,7.1-10.7,18.5-15.6,18.5c-0.3,0-0.6-0.6-0.6-1.2c0-9,7.6-19.1,7.6-28
		c0-4.1-2.3-6.8-5.5-6.8c-5.3,0-10.3,6.2-13.4,10.3c-2.8,3.6-5.5,7.4-8.2,11.2c0-0.9,0.3-2.2,0.8-3.5c0.5-0.8,0.7-1.5,0.8-1.8
		c0.7-1.5,1.4-3.1,1.8-4.4c0.9-2.5,3-6.1,3-9.3c0-2.6-1.8-3.9-3.7-3.9c-4.3,0-5.3,6.9-7.3,12.3c-0.5,1.3-0.9,2.6-1.5,4.1
		c-2.4,3-5.3,7.9-9,9.7c-0.3,0.3-3.9,1.8-5.3,1.8c-0.2,0-0.3-0.1-0.6-0.2c1-2.6,4.4-9.9,4.4-16.1c0-2,0.2-7.8-4.3-7.8
		c0,0-2.2-2.6-7.4-2.6c-0.2,0-0.7,0-0.9,0c-7.8,0.9-14.7,9-18,18.2c-7.4,9.3-19.8,17.5-25.5,17.5c-5.1,0-9.1-3.6-9.1-8.1
		c0-2.5,0.5-5,1.3-7.1c0.6-1,0.9-2,1.2-2.8c3.1-6,8.5-10.1,12.9-10.1c8.4,0,1.8,7.5,8.3,7.5c2.8,0,4.1-2.3,4.1-5.1
		c0-6-5.6-10.1-12.8-10.1c-0.6,0-1.2,0.1-1.8,0.1c-7.6,1-15.1,7.8-18.5,16.9c-4.4,6-9.6,16.9-14.2,16.9c-0.8,0-1-0.6-1-1.6
		c0-5.1,3.9-14.3,6.8-21.5c0.7-1.6,2.3-4.7,2.3-7c0-3-2-3.6-4.5-3.6c-3,0.7-4.1,5.2-5.2,8.2c-2.8,7.3-6.9,17-6.9,24.7
		c0,5.6,3.3,9.3,8.4,9.3c4,0,6.5-2,8.9-4.4c1.3-1.3,2.8-3.1,4.4-5.2c2.1,5.5,7.6,10.7,15.7,10.7c6.1,0,16.2-5.5,24-11.9
		c0.8,6.6,4.7,11.5,11.9,11.5c7.6,0,10.3-8.5,12.4-8.5c0.6,0,1.5,0.1,2.3,0.1c4.3-0.1,8.2-1.6,11.5-3.7c-0.2,1.3-0.3,2.5-0.3,3.7
		c0,3.9,1.7,6.8,4.8,6.8c4,0,5.5-3.3,7.7-7c4.4-7.4,8.5-13.9,13.6-20c0.9-1.2,1.7-2.6,3.2-3.2c-2.3,8.4-6.6,14.9-6.6,24
		c0,5.3,2.6,9.3,8.1,9.3c6.5,0,10.6-5.8,14.2-10.4c2.4,6.6,8.1,12.3,15.3,12.3c8.3,0,12.4-7,12.4-15.1c0-6.2-3.1-12.4-3.1-18.4
		c0-5,1.8-9.3,5.1-11.2c1.7-0.9,4.3-0.6,4.3-4.1C732.7,77.7,730.7,76.5,728.4,76.5z M627.9,118c-0.1,0-0.2,0-0.3,0
		c-3.1,0-4-3.2-4-6.7c0-2.1,0.3-4.1,0.8-5.9c0.1-0.2,0.3-0.5,0.5-0.8c1.2,3.7,5,7.5,7.5,9.2C632.3,115.6,629,117.9,627.9,118z
		 M636.1,107.1c-2.2,0-5.1-5.2-5.1-11.4c0-1.4,1.2-5.5,5.1-5.5c0.1,0,0.1,0,0.2,0c1.5,0.2,1.7,2,3.5,2c0.1,0,0.2,0,0.6,0
		C640.2,97.9,637,107.1,636.1,107.1z"/>
</g>
<g>
	<path class="st2" d="M56.7,38.2c3.3,0,5.5-3.9,5.5-7.3c0-2.6-1.2-5-4-5c-0.2,0-0.7,0.1-1,0.1c-3.6,0.8-5.2,2.5-5.2,6
		C52,35.7,53.7,38.2,56.7,38.2z"/>
	<path class="st2" d="M210.7,42c-0.1,0-0.3,0-0.6,0c-7.7,1-12.2,10.6-12.2,18.8c0,7.4,3,12.6,3,19.5c0,3.7-1,6.6-4.5,6.6
		c-5.5,0-9-6.9-9-10.7c0-1.7,0.3-3.2,0.9-4.7c0.7-1.2,1.3-2.2,1.7-3.2c0.3-0.5,0.8-1,1.3-1.4c1.4-1.2,4.4-2.3,4.4-5.3
		c0-2.2-2-3.6-3.9-3.6c-3.2,0-7,3.7-9.6,8.4c-5,7.1-10.7,18.5-15.6,18.5c-0.3,0-0.6-0.6-0.6-1.2c0-9,7.6-19.1,7.6-28
		c0-4.1-2.3-6.8-5.5-6.8c-5.3,0-10.3,6.2-13.4,10.3c-2.8,3.6-5.5,7.4-8.2,11.2c0-0.9,0.3-2.2,0.8-3.5c0.5-0.8,0.7-1.5,0.8-1.8
		c0.7-1.5,1.4-3.1,1.8-4.4c0.9-2.5,3-6.1,3-9.3c0-2.6-1.8-3.9-3.7-3.9c-4.3,0-5.3,6.9-7.3,12.3c-0.5,1.3-0.9,2.6-1.5,4.1
		c-2.4,3-5.3,7.9-9,9.7c-0.3,0.3-3.9,1.8-5.3,1.8c-0.2,0-0.3-0.1-0.6-0.2c1-2.6,4.4-9.9,4.4-16.1c0-2,0.2-7.8-4.3-7.8
		c0,0-2.2-2.6-7.4-2.6c-0.2,0-0.7,0-0.9,0c-7.8,0.9-14.7,9-18,18.2c-7.4,9.3-19.8,17.5-25.5,17.5c-5.1,0-9.1-3.6-9.1-8.1
		c0-2.5,0.5-5,1.3-7.1c0.6-1,0.9-2,1.2-2.8c3.1-6,8.5-10.1,12.9-10.1c8.4,0,1.8,7.5,8.3,7.5c2.8,0,4.1-2.3,4.1-5.1
		c0-6-5.6-10.1-12.8-10.1c-0.6,0-1.2,0.1-1.8,0.1c-7.6,1-15.1,7.8-18.5,16.9c-4.4,6-9.6,16.9-14.2,16.9c-0.8,0-1-0.6-1-1.6
		c0-5.1,3.9-14.3,6.8-21.5c0.7-1.6,2.3-4.7,2.3-7c0-3-2-3.6-4.5-3.6c-3,0.7-4.1,5.2-5.2,8.2c-2.8,7.3-6.9,17-6.9,24.7
		c0,5.6,3.3,9.3,8.4,9.3c4,0,6.5-2,8.9-4.4c1.3-1.3,2.8-3.1,4.4-5.2C60.7,86.8,66.3,92,74.3,92c6.1,0,16.2-5.5,24-11.9
		c0.8,6.6,4.7,11.5,11.9,11.5c7.6,0,10.3-8.5,12.4-8.5c0.6,0,1.5,0.1,2.3,0.1c4.3-0.1,8.2-1.6,11.5-3.7c-0.2,1.3-0.3,2.5-0.3,3.7
		c0,3.9,1.7,6.8,4.8,6.8c4,0,5.5-3.3,7.7-7c4.4-7.4,8.5-13.9,13.6-20c0.9-1.2,1.7-2.6,3.2-3.2c-2.3,8.4-6.6,14.9-6.6,24
		c0,5.3,2.6,9.3,8.1,9.3c6.5,0,10.6-5.8,14.2-10.4c2.4,6.6,8.1,12.3,15.3,12.3c8.3,0,12.4-7,12.4-15.1c0-6.2-3.1-12.4-3.1-18.4
		c0-5,1.8-9.3,5.1-11.2c1.7-0.9,4.3-0.6,4.3-4.1C215,43.2,213,42,210.7,42z M110.2,83.5c-0.1,0-0.2,0-0.3,0c-3.1,0-4-3.2-4-6.7
		c0-2.1,0.3-4.1,0.8-5.9c0.1-0.2,0.3-0.5,0.5-0.8c1.2,3.7,5,7.5,7.5,9.2C114.5,81.1,111.3,83.4,110.2,83.5z M118.3,72.6
		c-2.2,0-5.1-5.2-5.1-11.4c0-1.4,1.2-5.5,5.1-5.5c0.1,0,0.1,0,0.2,0c1.5,0.2,1.7,2,3.5,2c0.1,0,0.2,0,0.6,0
		C122.5,63.4,119.3,72.6,118.3,72.6z"/>
</g>
<path class="st3" d="M638.8,118.7l1.6-1.1C639.8,117.6,639.3,118.1,638.8,118.7z"/>
<path class="st2" d="M574.4,72.7c3.3,0,5.5-3.9,5.5-7.3c0-2.6-1.2-5-4-5c-0.2,0-0.7,0.1-1,0.1c-3.6,0.8-5.2,2.5-5.2,6
	C569.7,70.2,571.4,72.7,574.4,72.7z"/>
<path class="st1" d="M587.6,117.8l-3.1-2.4C585.3,116.4,586.3,117.2,587.6,117.8z"/>
<g>
	<path class="st4" d="M723.5,125L723.5,125L723.5,125z"/>
	<path class="st4" d="M721.3,127.2c-1.9,1.4-4.2,2.3-7.1,2.3c-7.3,0-12.9-5.8-15.3-12.3c-3.6,4.6-7.7,10.4-14.2,10.4
		c-5.4,0-8.1-4-8.1-9.3c0-9.1,4.3-15.6,6.6-24c-1.5,0.6-2.3,2.1-3.2,3.2c-5.1,6.1-9.2,12.7-13.6,20c-2.2,3.7-3.7,7-7.7,7
		c-3.1,0-4.8-2.9-4.8-6.8c0-1.2,0.1-2.4,0.3-3.7c-3.3,2.1-7.3,3.6-11.5,3.7c-0.8,0-1.7-0.1-2.3-0.1l-1.6,1.1
		c-2,2.3-4.9,7.5-10.9,7.5c-7.1,0-11.1-5-11.9-11.5c-7.7,6.3-17.9,11.9-24,11.9c-8.1,0-13.6-5.2-15.7-10.7c-1.6,2.1-3.1,3.9-4.4,5.2
		c-2.4,2.4-4.8,4.4-8.9,4.4c-5.1,0-8.4-3.7-8.4-9.3c0-7.6,4.1-17.4,6.9-24.7c0.7-2.1,1.5-5,3-6.7l-24.3,24.8
		c-0.7,5.1-1.1,10.2-1.1,15.5c0,49.9,34,92,80.1,104.2l56.2-56.2l4.9-4.9L721.3,127.2z"/>
</g>
<g>
	<path class="st5" d="M570.3,139.3v5.9h11.8v3.9h-11.8v9.9h-4v-23.7h15.8v4L570.3,139.3L570.3,139.3z"/>
	<path class="st5" d="M586.9,144.1c0-4.8,4-8.8,8.8-8.8s8.8,4,8.8,8.8s-4,8.8-8.8,8.8C590.8,152.9,586.9,149,586.9,144.1z
		 M603.4,159h-15.6v-3.9h15.6V159z M590.8,144.1c0,2.7,2.2,4.9,4.9,4.9s4.9-2.2,4.9-4.9s-2.2-4.9-4.9-4.9
		C593,139.3,590.8,141.4,590.8,144.1z"/>
	<path class="st5" d="M622.4,159l-6.2-9.9H614v9.9h-4v-13.8h3.8l-3.8-5.9v-4h7.9c0,0,7.9,0,7.9,6.9c0,4.2-2.9,5.8-5.2,6.5L627,159
		H622.4z M618.4,145.2c1-0.1,3.4-0.6,3.4-2.9c0-2.9-4-2.9-4-2.9h-3.2L618.4,145.2z"/>
	<path class="st5" d="M659.3,152.8l2.8,2.8c-2.1,2.1-5.1,3.4-8.4,3.4c-6.5,0-11.8-5.3-11.8-11.8s5.3-11.8,11.8-11.8
		c3.3,0,6.2,1.3,8.4,3.5l-2.8,2.8c-1.4-1.4-3.4-2.3-5.6-2.3c-4.4,0-7.9,3.5-7.9,7.9s3.5,7.9,7.9,7.9
		C655.9,155.1,657.9,154.2,659.3,152.8z"/>
	<path class="st5" d="M682.7,142.3c0,6.9-7.9,6.9-7.9,6.9h-4v9.9h-4v-23.7h7.9C674.8,135.4,682.7,135.4,682.7,142.3z M678.7,142.3
		c0-3-4-3-4-3h-4v5.9h4C674.8,145.3,678.7,145.3,678.7,142.3z"/>
</g>
<g>
	<path class="st5" d="M251,50.9v12.5h25.1v8.3H251v20.9h-8.4V42.5H276v8.4H251z"/>
	<path class="st5" d="M286.2,61.1c0-10.2,8.4-18.6,18.6-18.6s18.6,8.4,18.6,18.6s-8.4,18.6-18.6,18.6
		C294.5,79.7,286.2,71.3,286.2,61.1z M321.1,92.6H288v-8.3h33.1V92.6z M294.5,61.1c0,5.7,4.6,10.3,10.3,10.3
		c5.7,0,10.3-4.6,10.3-10.3s-4.6-10.3-10.3-10.3C299,50.8,294.5,55.4,294.5,61.1z"/>
	<path class="st5" d="M361.3,92.6l-13-20.9h-4.8v20.9h-8.4V63.4h7.9l-7.9-12.5v-8.4h16.7c0,0,16.7,0,16.7,14.6
		c0,8.9-6.2,12.4-11,13.7l13.6,21.8C371.1,92.6,361.3,92.6,361.3,92.6z M352.9,63.3c2.2-0.2,7.3-1.3,7.3-6.2c0-6.2-8.4-6.2-8.4-6.2
		h-6.7L352.9,63.3z"/>
	<path class="st5" d="M439.5,79.4l5.9,5.9c-4.5,4.5-10.7,7.3-17.7,7.3c-13.8,0-25.1-11.2-25.1-25.1s11.2-25.1,25.1-25.1
		c6.9,0,13.2,2.8,17.7,7.4l-5.9,5.9c-3-3-7.2-4.9-11.8-4.9c-9.2,0-16.7,7.4-16.7,16.7s7.4,16.7,16.7,16.7
		C432.3,84.2,436.5,82.4,439.5,79.4z"/>
	<path class="st5" d="M489,57.2c0,14.7-16.7,14.7-16.7,14.7h-8.4v20.9h-8.4V42.5h16.7C472.3,42.5,489,42.5,489,57.2z M480.6,57.2
		c0-6.3-8.4-6.3-8.4-6.3h-8.4v12.6h8.4C472.3,63.5,480.6,63.5,480.6,57.2z"/>
</g>
<g>
	<path class="st6" d="M37.3,128.6v-3.9h10.8c2,0,3-1,3-3v-2c0-2-1-3-3-3h-3.9c-4.6,0-6.9-2.3-6.9-6.9v-2c0-4.6,2.3-6.9,6.9-6.9H55
		v3.9H44.2c-2,0-3,1-3,3v2c0,2,1,3,3,3h3.9c4.6,0,6.9,2.3,6.9,6.9v2c0,4.6-2.3,6.9-6.9,6.9H37.3z"/>
	<path class="st6" d="M74.8,100.9h3.9l-8.3,27.6h-5.1L57,100.9h4l6.9,23.7L74.8,100.9z"/>
	<path class="st6" d="M84.7,121.7c0,2,1,3,3,3h3.9c2,0,3-1,3-3v-4.9h-5.9v-3.9h9.9v8.9c0,4.6-2.3,6.9-6.9,6.9h-3.9
		c-4.6,0-6.9-2.3-6.9-6.9V108c0-4.6,2.3-6.9,6.9-6.9h10.8v3.9h-11c-2,0-3,1-3,3L84.7,121.7L84.7,121.7z"/>
	<path class="st6" d="M114.2,100.9v3.9h-3.9v-3.9H114.2z M114.2,108.8v19.7h-3.9v-19.7H114.2z"/>
	<path class="st6" d="M122.1,121.7c0,2,1,3,3,3h7.9v3.9h-7.9c-4.6,0-6.9-2.3-6.9-6.9v-5.9c0-4.6,2.3-6.9,6.9-6.9h7.9v3.9h-7.9
		c-2,0-3,1-3,3V121.7z"/>
	<path class="st6" d="M152.7,122.6c0,3.9-2,5.9-5.9,5.9h-3.9c-3.9,0-5.9-2-5.9-5.9v-7.9c0-3.9,2-5.9,5.9-5.9h3.9
		c3.9,0,5.9,2,5.9,5.9V122.6z M140.9,122.6c0,1.3,0.7,2,2,2h3.9c1.3,0,2-0.7,2-2v-7.9c0-1.2-0.7-1.8-2-1.8h-3.9c-1.3,0-2,0.6-2,1.8
		V122.6z"/>
	<path class="st6" d="M160.6,128.6h-3.9v-19.7h3.4l0.6,2c1.3-1.3,3-2,4.9-2c4.6,0,6.9,2.3,6.9,6.9v12.8h-3.9v-12.8c0-2-1-3-3-3
		s-3.6,0.3-4.9,1v14.8H160.6z"/>
	<path class="st6" d="M176.4,128.6v-3.9h8.9c1.3,0,2-0.7,2-2c0-1.4-0.7-2.2-2-2.2h-3c-3.9,0-5.9-1.9-5.9-5.7c0-3.9,2-5.9,5.9-5.9
		h8.9v3.9h-8.9c-1.3,0-2,0.7-2,2c0,1.2,0.7,1.8,2,1.8h3c3.9,0,5.9,2,5.9,6.1c0,3.9-2,5.9-5.9,5.9H176.4z"/>
	<path class="st6" d="M207,100.9v3.9h-4v-3.9H207z M207,108.8v19.7h-4v-19.7H207z"/>
	<path class="st6" d="M214.9,128.6H211v-19.7h3.4l0.6,2c1.3-1.3,3-2,4.9-2c4.6,0,6.9,2.3,6.9,6.9v12.8h-3.9v-12.8c0-2-1-3-3-3
		s-3.6,0.3-4.9,1v14.8H214.9z"/>
	<path class="st6" d="M242.5,136.4h-3.9v-27.6h3.4l0.6,1.6c0.5-1.1,1.8-1.6,3.9-1.6h2c3.9,0,5.9,2,5.9,5.9v7.9c0,3.9-2,5.9-5.9,5.9
		h-2c-2.1,0-3.4-0.5-3.9-1.6v9.5H242.5z M246.4,112.8c-2.1,0-3.4,0.3-3.9,1v9.9c0.5,0.7,1.8,1,3.9,1h2c1.3,0,2-0.7,2-2v-7.9
		c0-1.3-0.7-2-2-2H246.4z"/>
	<path class="st6" d="M274,122.6c0,3.9-2,5.9-5.9,5.9h-3.9c-3.9,0-5.9-2-5.9-5.9v-7.9c0-3.9,2-5.9,5.9-5.9h3.9c3.9,0,5.9,2,5.9,5.9
		V122.6z M262.2,122.6c0,1.3,0.7,2,2,2h3.9c1.3,0,2-0.7,2-2v-7.9c0-1.2-0.7-1.8-2-1.8h-3.9c-1.3,0-2,0.6-2,1.8V122.6z"/>
	<path class="st6" d="M278,128.6v-3.9h8.9c1.3,0,2-0.7,2-2c0-1.4-0.7-2.2-2-2.2h-3c-3.9,0-5.9-1.9-5.9-5.7c0-3.9,2-5.9,5.9-5.9h8.9
		v3.9h-8.9c-1.3,0-2,0.7-2,2c0,1.2,0.7,1.8,2,1.8h3c3.9,0,5.9,2,5.9,6.1c0,3.9-2,5.9-5.9,5.9H278z"/>
	<path class="st6" d="M303.6,121.7c0,2,1,3,3,3h2v3.9h-2c-4.6,0-6.9-2.3-6.9-6.9v-8.9h-3v-3.9h3V103l3.9-2v7.9h4.9v3.9h-4.9V121.7z"
		/>
	<path class="st6" d="M332.2,116.7c0-2.6-1.3-3.9-3.9-3.9h-5.9v-3.9h5.9c5.3,0,7.9,2.6,7.9,7.9v11.8h-3.4l-0.6-2c-1.3,1.3-3,2-4.9,2
		c-4.6,0-6.9-2-6.9-5.9s2.3-5.9,6.9-5.9c2,0,3.6,0.7,4.9,2V116.7z M332.2,123.6v-2c-1.3-0.7-3-1-4.9-1c-2,0-3,0.7-3,2s1,2,3,2
		C329.2,124.6,330.9,124.3,332.2,123.6z"/>
	<path class="st6" d="M344,128.6h-3.9v-19.7h3.4l0.6,2c1.3-1.3,3-2,4.9-2c4.6,0,6.9,2.3,6.9,6.9v12.8H352v-12.8c0-2-1-3-3-3
		s-3.6,0.3-4.9,1v14.8H344z"/>
	<path class="st6" d="M371.6,100.9h3.9v27.6h-3.4l-0.6-2c-1.3,1.3-3,2-4.9,2c-4.6,0-6.9-2.3-6.9-6.9v-5.9c0-4.6,2.3-6.9,6.9-6.9
		c2,0,3.6,0.7,4.9,2v-9.9H371.6z M371.6,123.6v-9.9c-1.3-0.7-3-1-4.9-1c-2,0-3,1-3,3v5.9c0,2,1,3,3,3S370.3,124.3,371.6,123.6z"/>
	<path class="st6" d="M391.4,136.4h-3.9v-27.6h3.4l0.6,1.6c0.5-1.1,1.8-1.6,3.9-1.6h2c3.9,0,5.9,2,5.9,5.9v7.9c0,3.9-2,5.9-5.9,5.9
		h-2c-2.1,0-3.4-0.5-3.9-1.6v9.5H391.4z M395.3,112.8c-2.1,0-3.4,0.3-3.9,1v9.9c0.5,0.7,1.8,1,3.9,1h2c1.3,0,2-0.7,2-2v-7.9
		c0-1.3-0.7-2-2-2H395.3z"/>
	<path class="st6" d="M419,116.7c0-2.6-1.3-3.9-3.9-3.9h-5.9v-3.9h5.9c5.3,0,7.9,2.6,7.9,7.9v11.8h-3.4l-0.6-2c-1.3,1.3-3,2-4.9,2
		c-4.6,0-6.9-2-6.9-5.9s2.3-5.9,6.9-5.9c2,0,3.6,0.7,4.9,2V116.7z M419,123.6v-2c-1.3-0.7-3-1-4.9-1c-2,0-3,0.7-3,2s1,2,3,2
		C416,124.6,417.7,124.3,419,123.6z"/>
	<path class="st6" d="M438.7,126.6c-1.3,1.3-3,2-4.9,2c-4.6,0-6.9-2.3-6.9-6.9v-5.9c0-4.6,2.3-6.9,6.9-6.9c2,0,3.6,0.7,4.9,2l0.6-2
		h3.4v19.7c0,5.3-2.6,7.9-7.9,7.9h-5.9v-3.9h5.9c2.6,0,3.9-1.3,3.9-3.9V126.6z M433.8,112.8c-2,0-3,1-3,3v5.9c0,2,1,3,3,3
		s3.6-0.3,4.9-1v-9.9C437.4,113.1,435.7,112.8,433.8,112.8z"/>
	<path class="st6" d="M450.5,120.3v1.4c0,2,1,3,3,3h7.9v3.9h-7.9c-4.6,0-6.9-2.3-6.9-6.9v-5.9c0-4.6,2.3-6.9,6.9-6.9h2
		c4.6,0,6.9,2.3,6.9,6.9v4.5H450.5z M450.5,117.1h7.9v-1.4c0-2-1-3-3-3h-2c-2,0-3,1-3,3v1.4H450.5z"/>
	<path class="st6" d="M466.3,128.6v-3.9h8.9c1.3,0,2-0.7,2-2c0-1.4-0.7-2.2-2-2.2h-3c-3.9,0-5.9-1.9-5.9-5.7c0-3.9,2-5.9,5.9-5.9
		h8.9v3.9h-8.9c-1.3,0-2,0.7-2,2c0,1.2,0.7,1.8,2,1.8h3c3.9,0,5.9,2,5.9,6.1c0,3.9-2,5.9-5.9,5.9H466.3z"/>
	<path class="st6" d="M485.1,128.6v-3.9h3.9v3.9H485.1z"/>
</g>
</svg>
