<?xml version="1.0" encoding="utf-8"?>
<!-- Generator: Adobe Illustrator 21.0.0, SVG Export Plug-In . SVG Version: 6.00 Build 0)  -->
<svg version="1.1" id="Livello_1" xmlns="http://www.w3.org/2000/svg" xmlns:xlink="http://www.w3.org/1999/xlink" x="0px" y="0px"
	 viewBox="0 0 256 256" style="enable-background:new 0 0 256 256;" xml:space="preserve">
<style type="text/css">
	.st0{fill:#FD0000;}
	.st1{fill:#FFED00;}
	.st2{fill:none;}
	.st3{fill:#B20F0B;}
	.st4{fill:#FFFFFF;}
</style>
<g>
	<circle class="st0" cx="128" cy="128" r="118.4"/>
	<g>
		<path class="st1" d="M48.3,70.6c3.7,0,6.1-4.3,6.1-8c0-2.9-1.3-5.4-4.4-5.4c-0.3,0-0.8,0.1-1.1,0.1c-3.9,0.9-5.7,2.8-5.7,6.6
			C43.1,67.8,45,70.6,48.3,70.6z"/>
		<path class="st1" d="M217.4,74.7c-0.1,0-0.4,0-0.6,0c-8.5,1.1-13.4,11.6-13.4,20.6c0,8.1,3.3,13.8,3.3,21.4c0,4-1.1,7.2-4.9,7.2
			c-6.1,0-9.9-7.6-9.9-11.8c0-1.9,0.4-3.5,1-5.2c0.8-1.3,1.4-2.4,1.9-3.5c0.4-0.5,0.9-1.1,1.4-1.5c1.5-1.3,4.8-2.5,4.8-5.8
			c0-2.4-2.2-3.9-4.3-3.9c-3.5,0-7.7,4-10.5,9.2c-5.4,7.8-11.8,20.4-17.1,20.4c-0.4,0-0.6-0.6-0.6-1.3c0-9.9,8.4-21,8.4-30.7
			c0-4.6-2.5-7.5-6.1-7.5c-5.8,0-11.3,6.8-14.7,11.3c-3,3.9-6.1,8.1-9,12.3c0-1,0.4-2.4,0.9-3.8c0.5-0.9,0.8-1.6,0.9-2
			c0.8-1.6,1.5-3.4,2-4.8c1-2.8,3.3-6.7,3.3-10.2c0-2.9-2-4.3-4-4.3c-4.7,0-5.8,7.6-8,13.5c-0.5,1.4-1,2.9-1.6,4.6
			c-2.7,3.3-5.8,8.7-9.9,10.6c-0.4,0.4-4.3,2-5.8,2c-0.3,0-0.4-0.1-0.6-0.3c1.1-2.9,4.8-10.9,4.8-17.7c0-2.2,0.3-8.6-4.7-8.6
			c0,0-2.4-2.9-8.1-2.9c-0.3,0-0.8,0-1,0c-8.6,1-16.2,9.9-19.7,20c-8.1,10.2-21.8,19.2-28,19.2c-5.6,0-10-3.9-10-8.9
			c0-2.8,0.5-5.4,1.4-7.8c0.6-1.1,1-2.2,1.3-3c3.4-6.6,9.4-11.1,14.2-11.1c9.2,0,2,8.2,9.1,8.2c3,0,4.6-2.5,4.6-5.6
			c0-6.6-6.2-11.1-14-11.1c-0.6,0-1.3,0.1-2,0.1c-8.4,1.1-16.6,8.6-20.4,18.6c-4.8,6.6-10.5,18.6-15.6,18.6c-0.9,0-1.1-0.6-1.1-1.8
			c0-5.6,4.3-15.7,7.5-23.7c0.8-1.8,2.5-5.2,2.5-7.7c0-3.3-2.2-3.9-4.9-3.9c-3.3,0.8-4.6,5.7-5.7,9c-3,8-7.6,18.7-7.6,27.1
			c0,6.2,3.7,10.2,9.2,10.2c4.4,0,7.1-2.2,9.7-4.8c1.4-1.4,3-3.4,4.8-5.7c2.3,6.1,8.4,11.8,17.2,11.8c6.7,0,17.8-6.1,26.3-13
			c0.9,7.2,5.2,12.7,13,12.7c8.4,0,11.3-9.4,13.7-9.4c0.6,0,1.6,0.1,2.5,0.1c4.7-0.1,9-1.8,12.7-4c-0.3,1.4-0.4,2.8-0.4,4
			c0,4.3,1.9,7.5,5.3,7.5c4.4,0,6.1-3.7,8.5-7.7c4.8-8.1,9.4-15.3,14.9-22c1-1.3,1.9-2.9,3.5-3.5c-2.5,9.2-7.2,16.3-7.2,26.3
			c0,5.8,2.9,10.2,8.9,10.2c7.1,0,11.6-6.3,15.6-11.4c2.7,7.2,8.9,13.5,16.8,13.5c9.1,0,13.7-7.7,13.7-16.6c0-6.8-3.4-13.7-3.4-20.2
			c0-5.4,2-10.2,5.6-12.3c1.9-1,4.7-0.6,4.7-4.6C222.1,76,220,74.7,217.4,74.7z M107,120.3c-0.1,0-0.3,0-0.4,0
			c-3.4,0-4.4-3.5-4.4-7.3c0-2.3,0.4-4.6,0.9-6.5c0.1-0.3,0.4-0.5,0.5-0.9c1.3,4,5.4,8.2,8.2,10.1
			C111.8,117.6,108.3,120.2,107,120.3z M116,108.4c-2.4,0-5.6-5.7-5.6-12.5c0-1.5,1.3-6.1,5.6-6.1c0.1,0,0.1,0,0.3,0
			c1.6,0.3,1.9,2.2,3.8,2.2c0.1,0,0.3,0,0.6,0C120.5,98.3,117,108.4,116,108.4z"/>
	</g>
	<path class="st2" d="M118.9,121.1l1.7-1.2C120.1,119.9,119.6,120.4,118.9,121.1z"/>
	<path class="st1" d="M48.3,70.6c3.7,0,6.1-4.3,6.1-8c0-2.9-1.3-5.4-4.4-5.4c-0.3,0-0.8,0.1-1.1,0.1c-3.9,0.9-5.7,2.8-5.7,6.6
		C43.1,67.8,45,70.6,48.3,70.6z"/>
	<path class="st0" d="M62.7,120.1l-3.4-2.7C60.2,118.5,61.4,119.5,62.7,120.1z"/>
	<g>
		<polygon class="st3" points="212,128 212,128 212,128 		"/>
		<path class="st3" d="M209.6,130.4c-2.1,1.6-4.7,2.5-7.8,2.5c-8,0-14.2-6.3-16.8-13.5c-3.9,5.1-8.5,11.4-15.6,11.4
			c-5.9,0-8.9-4.4-8.9-10.2c0-10,4.7-17.1,7.2-26.3c-1.6,0.6-2.5,2.3-3.5,3.5c-5.6,6.7-10.1,13.9-14.9,22c-2.4,4-4,7.7-8.5,7.7
			c-3.4,0-5.3-3.2-5.3-7.5c0-1.3,0.1-2.7,0.4-4c-3.7,2.3-8,3.9-12.7,4c-0.9,0-1.9-0.1-2.5-0.1l-1.7,1.2c-2.2,2.5-5.4,8.2-11.9,8.2
			c-7.8,0-12.1-5.4-13-12.7c-8.5,7-19.6,13-26.3,13c-8.9,0-14.9-5.7-17.2-11.8c-1.8,2.3-3.4,4.3-4.8,5.7c-2.7,2.7-5.3,4.8-9.7,4.8
			c-5.6,0-9.2-4-9.2-10.2c0-8.4,4.6-19.1,7.6-27.1c0.8-2.3,1.7-5.4,3.3-7.4L10.8,111c-0.8,5.6-1.2,11.2-1.2,17
			c0,54.9,37.3,101,87.9,114.4l61.7-61.7l5.4-5.4L209.6,130.4z"/>
	</g>
	<g>
		<path class="st4" d="M43.7,143.7v6.5h13v4.3h-13v10.8h-4.3v-26h17.3v4.3H43.7z"/>
		<path class="st4" d="M62,149c0-5.3,4.3-9.7,9.7-9.7c5.3,0,9.7,4.3,9.7,9.7c0,5.3-4.3,9.7-9.7,9.7C66.3,158.7,62,154.3,62,149z
			 M80.1,165.4H62.9v-4.3h17.2V165.4z M66.3,149c0,3,2.4,5.3,5.3,5.3c3,0,5.3-2.4,5.3-5.3c0-3-2.4-5.3-5.3-5.3
			C68.7,143.7,66.3,146.1,66.3,149z"/>
		<path class="st4" d="M101,165.4l-6.8-10.8h-2.5v10.8h-4.3v-15.1h4.1l-4.1-6.5v-4.3H96c0,0,8.7,0,8.7,7.6c0,4.6-3.2,6.4-5.7,7.1
			l7.1,11.3H101z M96.6,150.2c1.2-0.1,3.8-0.7,3.8-3.2c0-3.2-4.3-3.2-4.3-3.2h-3.5L96.6,150.2z"/>
		<path class="st4" d="M141.6,158.5l3,3.1c-2.3,2.3-5.6,3.8-9.2,3.8c-7.2,0-13-5.8-13-13s5.8-13,13-13c3.6,0,6.8,1.4,9.2,3.8l-3,3
			c-1.6-1.6-3.8-2.5-6.1-2.5c-4.8,0-8.7,3.9-8.7,8.7s3.9,8.7,8.7,8.7C137.8,161,140,160.1,141.6,158.5z"/>
		<path class="st4" d="M167.2,147c0,7.6-8.7,7.6-8.7,7.6h-4.3v10.8h-4.3v-26.1h8.7C158.5,139.4,167.2,139.4,167.2,147z M162.9,147
			c0-3.3-4.3-3.3-4.3-3.3h-4.3v6.5h4.3C158.5,150.3,162.9,150.3,162.9,147z"/>
	</g>
</g>
</svg>
