<?xml version="1.0" encoding="utf-8"?>
<!-- Generator: Adobe Illustrator 21.0.0, SVG Export Plug-In . SVG Version: 6.00 Build 0)  -->
<svg version="1.1" id="Livello_1" xmlns="http://www.w3.org/2000/svg" xmlns:xlink="http://www.w3.org/1999/xlink" x="0px" y="0px"
	 viewBox="0 0 256 256" style="enable-background:new 0 0 256 256;" xml:space="preserve">
<style type="text/css">
	.st0{fill:#FD0000;}
	.st1{fill:#FFFFFF;}
	.st2{fill:#CE0000;}
</style>
<circle class="st0" cx="128" cy="128" r="117.5"/>
<path class="st1" d="M96.4,60.6c0.8,0.4,1.4,0.7,2.1,1.1c3,1.6,6,3.1,9,4.7c2.8,1.5,5.2,0.7,6.7-2.1c4.4-8.1,8.7-16.3,13.1-24.4
	c0.2-0.3,0.4-0.6,0.6-1.1c0.3,0.5,0.5,0.8,0.7,1.1c4.3,8.1,8.6,16.1,13,24.2c1.6,2.9,3.9,3.7,6.9,2.2c3.3-1.7,6.5-3.4,9.8-5.1
	c0.4-0.2,0.7-0.3,1.3-0.6c-0.5,2.7-0.9,5.1-1.4,7.6c-2.2,12-4.4,23.9-6.6,35.9c-0.3,1.7,0.3,3,1.6,3.7c1.4,0.7,2.9,0.4,4.2-0.9
	c5.8-6.4,11.7-12.8,17.5-19.2c0.3-0.3,0.5-0.6,1-1.3c0.5,1.8,0.9,3.2,1.3,4.7c0.3,1.2,0.7,2.3,1,3.5c0.8,3,3.1,4.3,6.1,3.7
	c6.7-1.3,13.4-2.7,20.2-4c0.2,0,0.4-0.1,0.8-0.1c-0.7,2.6-1.4,5.1-2.1,7.6c-1.5,5.5-3.1,10.9-4.6,16.4c-0.8,3,0.4,5.5,3.3,6.7
	c2.3,1,4.6,2,7.1,3c-2.1,1.8-4.1,3.4-6,5.1c-10.4,8.7-20.8,17.5-31.2,26.2c-2.8,2.4-3.7,5.2-2.7,8.7c0.9,3.2,1.8,6.3,2.7,9.7
	c-1.7-0.2-3.2-0.4-4.7-0.5c-10.8-1.4-21.6-2.8-32.5-4.1c-2.8-0.4-4.6,1.3-4.5,4.1c0.4,10.4,1,20.8,1.4,31.2c0.1,2.9,0,5.8,0,8.9
	c-2.2,0-4.6,0-7.1,0c0-1,0-1.9,0-2.8c0.5-10.9,1-21.7,1.4-32.6c0.1-1.6,0.2-3.2,0.2-4.8c0.1-2.7-1.7-4.3-4.4-4
	c-5.5,0.7-10.9,1.4-16.4,2.1c-6.8,0.9-13.5,1.7-20.3,2.6c-0.1,0-0.2,0-0.5-0.1c0.3-1,0.5-1.9,0.8-2.9c0.6-2.3,1.3-4.6,1.9-6.9
	c0.9-3.4,0.1-6.2-2.6-8.5c-12-10.1-23.9-20.1-35.9-30.2c-0.4-0.3-0.8-0.7-1.4-1.1c0.4-0.2,0.7-0.4,1-0.5c2-0.9,4-1.7,6-2.5
	c2.9-1.2,4.1-3.7,3.2-6.7c-2.1-7.5-4.2-15-6.3-22.6c-0.1-0.4-0.2-0.9-0.4-1.5c3.6,0.7,7.1,1.4,10.6,2.1c3.5,0.7,7,1.4,10.6,2.1
	c2.9,0.5,5.1-0.9,5.9-3.7c0.7-2.6,1.4-5.1,2.2-7.7c0.1-0.1,0.3-0.2,0.4-0.3c0.2,0.4,0.4,0.8,0.7,1.1c5.8,6.3,11.5,12.7,17.3,19
	c1,1.1,2.2,1.8,3.8,1.3c1.8-0.5,2.6-2.1,2.2-4.1c-1.1-6-2.2-12-3.3-18c-1.5-8.2-3-16.4-4.5-24.6C96.4,61.1,96.4,61,96.4,60.6z"/>
<path class="st2" d="M61.2,96.2C61.2,96.2,61.3,96.2,61.2,96.2c3.6,0.7,7.1,1.4,10.6,2.1c2.9,0.5,5.1-0.9,5.9-3.7
	c0.7-2.6,1.4-5.1,2.2-7.7c0.1-0.1,0.3-0.2,0.4-0.3c0.2,0.4,0.4,0.8,0.7,1.1c5.8,6.3,11.5,12.7,17.3,19c1,1.1,2.2,1.8,3.8,1.3
	c1.8-0.5,2.6-2.1,2.2-4.1c-1.1-6-2.2-12-3.3-18c-1.5-8.2-3-16.4-4.5-24.6c0-0.1,0-0.2,0-0.3L61.2,96.2z"/>
<path class="st2" d="M171.6,177.4l0.4-0.4l-0.6-0.6C171.4,176.7,171.5,177,171.6,177.4z"/>
<path class="st2" d="M167,177.1c-10.8-1.4-21.6-2.8-32.5-4.1c-2.8-0.4-4.6,1.3-4.5,4.1c0.4,10.4,1,20.8,1.4,31.2
	c0.1,2.9,0,5.8,0,8.9c-2.2,0-4.6,0-7.1,0c0-1,0-1.9,0-2.8c0.5-10.9,1-21.7,1.4-32.6c0.1-1.6,0.2-3.2,0.2-4.8c0.1-2.7-1.7-4.3-4.4-4
	c-5.5,0.7-10.9,1.4-16.4,2.1c-6.8,0.9-13.5,1.7-20.3,2.6c-0.1,0-0.2,0-0.5-0.1c0.3-1,0.5-1.9,0.8-2.9c0.6-2.3,1.3-4.6,1.9-6.9
	c0.9-3.4,0.1-6.2-2.6-8.5c-12-10.1-23.9-20.1-35.9-30.2c-0.4-0.3-0.8-0.7-1.4-1.1c0.4-0.2,0.7-0.4,1-0.5c2-0.9,4-1.7,6-2.5
	c2.9-1.2,4.1-3.7,3.2-6.7c-2.1-7.5-4.2-15-6.3-22.6c-0.1-0.4-0.2-0.8-0.4-1.4l-0.1-0.1l-40,40c2.8,54.5,42.7,99.2,94.9,109.3
	l65.7-65.7C169.8,177.5,168.4,177.3,167,177.1z"/>
<path d="M122,80.6l-5.8,6c-0.4,0.4-1,0.4-1.4,0l-5.8-6c-1.7-1.7-1.6-4.6,0.3-6.2c1.6-1.4,4.1-1.1,5.6,0.4l0.6,0.6l0.6-0.6
	c1.5-1.6,3.9-1.8,5.6-0.4C123.6,76,123.7,78.9,122,80.6z"/>
<path d="M178.4,142.4h-8.8l0.2,1h8c0.5,0,0.8,0.4,0.7,0.9l-0.2,0.7c0.6,0.3,0.9,0.8,0.9,1.5c0,0.9-0.7,1.7-1.7,1.7s-1.7-0.7-1.7-1.7
	c0-0.5,0.2-0.9,0.5-1.2h-6.3c0.3,0.3,0.5,0.7,0.5,1.2c0,0.9-0.7,1.7-1.7,1.7s-1.7-0.7-1.7-1.7c0-0.6,0.3-1.2,0.8-1.5l-2.1-10.3h-2.1
	c-0.4,0-0.7-0.3-0.7-0.7v-0.5c0-0.4,0.3-0.7,0.7-0.7h3.1c0.3,0,0.6,0.2,0.7,0.6l0.3,1.3h11.7c0.5,0,0.8,0.4,0.7,0.9l-1.4,6.2
	C179.1,142.2,178.8,142.4,178.4,142.4z"/>
<path d="M85.2,103.2c0,7.7-6.2,13.9-13.9,13.9c-0.3,0-0.6-0.2-0.7-0.6l-0.7-3.1c-0.1-0.3,0.1-0.7,0.4-0.8l3.3-1.4
	c0.3-0.1,0.6,0,0.8,0.2l1.5,1.8c2.3-1.1,4.2-3,5.3-5.3l-1.8-1.5c-0.2-0.2-0.3-0.5-0.2-0.8l1.4-3.3c0.1-0.3,0.5-0.5,0.8-0.4l3.1,0.7
	C85,102.5,85.2,102.8,85.2,103.2z"/>
<path d="M129.4,147.2c-1.4,0-1.8-1.9-1.1-1.9h17.4c0.7,0,0.4,1.9-1.1,1.9H129.4z M130.9,141.5v-6.9c0-0.4,0.3-0.7,0.7-0.7h11.7
	c2.1,0,3.8,1.7,3.8,3.8s-1.7,3.8-3.8,3.8h-1c0,1.6-1.3,2.9-2.9,2.9h-5.7C132.2,144.4,130.9,143.1,130.9,141.5z M142.4,135.7v3.8h1
	c1.1,0,1.9-0.9,1.9-1.9c0-1.1-0.9-1.9-1.9-1.9H142.4z"/>
<path d="M154.6,162.5c0,4.1-3.3,7.4-7.4,7.4c-4.1,0-7.4-3.3-7.4-7.4s3.3-7.4,7.4-7.4C151.2,155.1,154.6,158.4,154.6,162.5z
	 M149.8,164.6c-0.7,0.8-1.7,1.3-2.7,1.3s-2-0.5-2.7-1.3c-0.4-0.5-1.1,0.1-0.7,0.6c0.9,1,2.1,1.6,3.4,1.6c1.3,0,2.6-0.6,3.4-1.6
	C151,164.8,150.2,164.1,149.8,164.6z M143.8,161.1c0,0.5,0.4,1,1,1s1-0.4,1-1s-0.4-1-1-1S143.8,160.6,143.8,161.1z M148.6,161.1
	c0,0.5,0.4,1,1,1s1-0.4,1-1s-0.4-1-1-1S148.6,160.6,148.6,161.1z"/>
<path d="M124.2,101.5v7.2c0,0.4-0.3,0.7-0.7,0.7h-2.4c-0.4,0-0.7-0.3-0.7-0.7v-7.2c0-0.4,0.3-0.7,0.7-0.7h2.4
	C123.9,100.8,124.2,101.1,124.2,101.5z M123,107.5c0-0.4-0.3-0.7-0.7-0.7s-0.7,0.3-0.7,0.7s0.3,0.7,0.7,0.7S123,107.9,123,107.5z
	 M130.8,99.3h3c1,0,1.8,0.8,1.8,1.7c0,0.5-0.2,1.1-0.6,1.5l0,0c0.3,0.7,0.2,1.7-0.3,2.4c0.3,0.8,0,1.7-0.5,2.2
	c0.1,0.5,0.1,1-0.2,1.3c-0.6,0.9-2.1,0.9-3.4,0.9h-0.1c-1.4,0-2.6-0.5-3.6-0.9c-0.5-0.2-1.1-0.5-1.6-0.5c-0.2,0-0.4-0.2-0.4-0.4
	v-6.4c0-0.1,0-0.2,0.1-0.3c1.2-1.2,1.7-2.4,2.7-3.4c0.4-0.4,0.6-1.1,0.8-1.8c0.1-0.6,0.4-1.7,1-1.7c0.7,0,2.2,0.2,2.2,2.4
	C131.8,97.8,131.1,98.5,130.8,99.3z"/>
<path d="M165.7,110.2l-2.2,12.9c-0.1,0.5-0.6,0.7-1,0.5l-3.7-1.6l-1.9,2.3c-0.4,0.5-1.3,0.2-1.3-0.5v-2.4l7.2-8.8
	c0.1-0.2-0.1-0.4-0.3-0.2l-8.6,7.6l-3.2-1.3c-0.5-0.2-0.6-1-0.1-1.3l13.9-8C165.1,109.2,165.8,109.6,165.7,110.2z"/>
<path d="M87.3,138.5c-1.3,0-1.4,1-2.2,1c-0.8,0-0.9-1-2.2-1c-1.3,0-1.4,1-2.2,1c-0.8,0-0.9-1-2.2-1c-1.3,0-1.4,1-2.2,1v-2.4
	c0-0.8,0.6-1.4,1.4-1.4H78v-4.3h1.9v4.3h1.9v-4.3h1.9v4.3h1.9v-4.3h1.9v4.3h0.5c0.8,0,1.4,0.6,1.4,1.4v2.4
	C88.7,139.5,88.6,138.5,87.3,138.5z M76.1,143.3v-2.9c1.3,0,1.4-1,2.2-1c0.8,0,0.9,1,2.2,1c1.3,0,1.4-1,2.2-1c0.8,0,0.9,1,2.2,1
	c1.3,0,1.4-1,2.2-1c0.8,0,0.9,1,2.2,1v2.9H76.1z M78,129.9c0-0.9,1-0.7,1-1.9c0.4,0,1,0.9,1,1.7s-0.4,1.2-1,1.2
	C78.4,130.9,78,130.4,78,129.9z M81.8,129.9c0-0.9,1-0.7,1-1.9c0.4,0,1,0.9,1,1.7s-0.4,1.2-1,1.2S81.8,130.4,81.8,129.9z
	 M85.7,129.9c0-0.9,1-0.7,1-1.9c0.4,0,1,0.9,1,1.7s-0.4,1.2-1,1.2S85.7,130.4,85.7,129.9z"/>
<path d="M119.3,128.1c0,1.6-3.4,2.9-7.7,2.9c-4.2,0-7.7-1.3-7.7-2.9c0-1.1,1.8-2.1,4.3-2.6c0.1,0.2,0.3,0.3,0.5,0.4v0.7
	c-2,0.3-3.3,0.8-3.3,1.5c0,0.9,2.8,1.7,6.2,1.7s6.2-0.7,6.2-1.7c0-0.6-1.4-1.2-3.3-1.5v-0.7c0.2-0.1,0.3-0.2,0.5-0.4
	C117.6,126,119.3,127,119.3,128.1z M108.8,124.3v-2.9c0-0.8,0.6-1.4,1.4-1.4h0.4c0.3,0.2,0.7,0.2,1.1,0.2s0.8-0.1,1.1-0.2h0.4
	c0.8,0,1.4,0.6,1.4,1.4v2.9c0,0.5-0.4,1-1,1v2.9c0,0.5-0.4,1-1,1h-1.9c-0.5,0-1-0.4-1-1v-2.9C109.3,125.2,108.8,124.8,108.8,124.3z
	 M109.8,117.6c0-1.1,0.9-1.9,1.9-1.9c1.1,0,1.9,0.9,1.9,1.9s-0.9,1.9-1.9,1.9C110.6,119.5,109.8,118.6,109.8,117.6z"/>
<path d="M196.7,112.7v1c0,0.3-0.2,0.5-0.5,0.5h-0.5c-1.2,0-2.2-0.4-2.9-1c-0.7,0.6-1.7,1-2.9,1c-1.2,0-2.2-0.4-2.9-1
	c-0.7,0.6-1.7,1-2.9,1c-1.2,0-2.2-0.4-2.9-1c-0.7,0.6-1.7,1-2.9,1h-0.5c-0.3,0-0.5-0.2-0.5-0.5v-1c0-0.3,0.2-0.5,0.5-0.5h0.5
	c0.8,0,1.4-0.3,1.7-0.5c0.3-0.2,0.6-0.4,1-0.4h0.5c0.4,0,0.7,0.2,1,0.4c0.3,0.3,0.9,0.5,1.7,0.5c0.8,0,1.4-0.3,1.7-0.5
	c0.3-0.2,0.6-0.4,1-0.4h0.5c0.4,0,0.7,0.2,1,0.4c0.3,0.3,0.9,0.5,1.7,0.5s1.4-0.3,1.7-0.5c0.3-0.2,0.6-0.4,1-0.4h0.5
	c0.4,0,0.7,0.2,1,0.4c0.3,0.3,0.9,0.5,1.7,0.5h0.5C196.5,112.2,196.7,112.5,196.7,112.7z M178.5,107c0-1.3,1.1-2.4,2.4-2.4
	s2.4,1.1,2.4,2.4c0,1.3-1.1,2.4-2.4,2.4S178.5,108.3,178.5,107z M182.8,110.7l2.1-2.9c0.2-0.3,0.5-0.6,0.8-0.8l2.4-1.7
	c0.8-0.5,1.7-0.7,2.6-0.5l3,0.6c0.8,0.2,1.3,0.9,1.1,1.7c-0.2,0.8-0.9,1.3-1.7,1.1l-3-0.6c-0.1,0-0.3,0-0.4,0.1l-0.5,0.4l3.4,2.4
	c-0.5,0-1,0.3-1.5,0.7c-0.1,0.1-0.5,0.3-1,0.3s-0.9-0.2-1-0.3c-0.5-0.4-1-0.7-1.6-0.7h-0.5c-0.6,0-1.1,0.2-1.6,0.7
	c-0.1,0.1-0.5,0.3-1,0.3c-0.6,0-0.9-0.2-1-0.3C183.1,110.9,182.9,110.8,182.8,110.7z"/>
<path d="M147.5,80.4v6.5c0,0.3-0.2,0.5-0.5,0.5h-1.9c-0.3,0-0.5-0.2-0.5-0.5v-3.3h-4.8v3.3c0,0.3-0.2,0.5-0.5,0.5h-1.9
	c-0.3,0-0.5-0.2-0.5-0.5v-6.4c-1.1-0.4-1.9-1.4-1.9-2.7c0-0.5,0.4-1,1-1c0.5,0,1,0.4,1,1c0,0.5,0.4,1,1,1h5.1L147.5,80.4z
	 M150.4,76.4c0,1.1-0.9,1.9-1.9,1.9h-1v1.1l-3.8-1.4v-4.5c0-0.4,0.5-0.6,0.8-0.3l0.8,0.8h1.6c0.3,0,0.7,0.2,0.9,0.5L148,75h1.9
	c0.3,0,0.5,0.2,0.5,0.5V76.4z M146.5,75c-0.3,0-0.5,0.2-0.5,0.5s0.2,0.5,0.5,0.5s0.5-0.2,0.5-0.5S146.8,75,146.5,75z"/>
<path d="M96,156.6c-0.9-0.3-1.5-1.2-1.5-2.2c0-1.3,1.1-2.4,2.4-2.4h0.5c0.2-1.1,1.2-1.9,2.3-1.9c1.2,0,2.1,0.8,2.3,1.9h0.5
	c1.2,0,2.1,0.8,2.3,2c-0.4,0.1-0.8,0.2-1.1,0.4c-0.8-0.9-1.9-1.4-3.2-1.4c-2,0-3.7,1.4-4.2,3.3C96.3,156.4,96.2,156.5,96,156.6z
	 M110.7,159.7c0,1.6-1.3,2.9-2.9,2.9h-9.6c-1.6,0-2.9-1.3-2.9-2.9c0-1.3,0.8-2.3,1.9-2.7c0.2-1.7,1.6-3,3.3-3c1.3,0,2.4,0.7,3,1.8
	c0.4-0.5,1.1-0.9,1.8-0.9c1.2,0,2.1,0.8,2.3,1.9h0C109.4,156.8,110.7,158.1,110.7,159.7z M113.6,155c-0.8,1-1.9,1.6-3.2,1.7
	c-0.5-0.4-1.1-0.8-1.8-0.9c-0.5-1-1.5-1.8-2.6-1.9c-0.1-0.7-0.4-1.4-0.9-1.9c0,0,0,0,0-0.1c0-2.6,2.2-4.8,4.8-4.8
	c0.3,0,0.6,0,0.9,0.1c0.2,0,0.3,0.3,0.1,0.4c-1.2,0.7-1.9,1.9-1.9,3.3c0,2.3,2.1,4.1,4.5,3.7C113.5,154.6,113.7,154.9,113.6,155z"/>
</svg>
